<svg id="Capa_1" enable-background="new 0 0 512 512" height="512" viewBox="0 0 512 512" width="512" xmlns="http://www.w3.org/2000/svg"><g><g><path d="m403.672 341.884c-70.463 0-122.511-57.913-114.533-124.115 8.231-68.298 115.083-137.367 112.806-206.661-.307-9.358 10.728-14.589 17.818-8.472 30.836 26.605 76.343 87.319 37.118 196.473 0 0 18.417-2.036 30.477-16.689 5.483-6.662 16.207-4.356 18.637 3.923 21.131 71.99-13.631 155.541-102.323 155.541z" fill="#edbe2c"/><path d="m505.995 186.343c-2.43-8.279-13.154-10.585-18.637-3.923-12.06 14.653-30.477 16.689-30.477 16.689 39.225-109.154-6.283-169.868-37.118-196.473-5.283-4.559-12.753-2.809-16.091 2.249v336.999c88.692 0 123.454-83.551 102.323-155.541z" fill="#e58f22"/></g><g><g><path d="m475.231 438.711h-161.187c.944-.772 1.86-1.596 2.741-2.475 14.374-14.346 14.374-37.605 0-51.951l-109.034-108.822c-20.754-20.713-48.902-32.349-78.252-32.349h-129.499v56.569 56.108h66.492l134.518 132.334c15.551 15.299 36.51 23.875 58.346 23.875h215.875c20.278 0 36.716-16.406 36.716-36.644 0-20.238-16.438-36.645-36.716-36.645z" fill="#f5dfbb"/><path d="m201.01 488.125c15.551 15.299 36.51 23.875 58.346 23.875h215.875c20.278 0 36.716-16.406 36.716-36.644 0-.087-.006-.172-.007-.258h-324.173z" fill="#edbdab"/></g><path d="m285.657 444.487c9.917 0 19.831-1.933 29.132-5.776h-.745c.944-.772 1.86-1.596 2.741-2.475 12.945-12.92 14.225-33.066 3.855-47.423l-7.432 7.417c-15.19 15.161-39.908 15.162-55.1.001l-49.038-48.942c-7.219-7.206-18.926-7.205-26.145 0-7.22 7.205-7.22 18.888 0 26.094l49.038 48.943c14.803 14.774 34.249 22.161 53.694 22.161z" fill="#edbdab"/></g></g></svg>