<svg id="Capa_1" enable-background="new 0 0 512 512" height="512" viewBox="0 0 512 512" width="512" xmlns="http://www.w3.org/2000/svg"><g><path d="m287.914 386.228h-132.475l-26.684 106.923c-2.527 9.519 4.649 18.849 14.497 18.849h144.661v-125.772z" fill="#4d5788"/><g><g><g><path d="m382.735 84.979c-16.893 0-30.692 13.346-31.591 30.147v-61.99c0-17.613-14.166-31.892-31.64-31.892-16.893 0-30.692 13.346-31.591 30.148v-19.5c.001-17.614-14.165-31.892-31.639-31.892-17.474 0-29.965 14.278-29.965 31.892v30.604c-.899-16.802-16.372-30.148-33.266-30.148-17.474 0-31.64 14.278-31.64 31.892v106.39c-.499-17.613-14.664-31.892-32.139-31.892-17.474 0-31.64 14.279-31.64 31.892v131.74c0 35.899 13.194 70.526 37.035 97.196 16.707 18.689 40.493 29.358 65.451 29.358h130.425c46.303 0 83.84-37.835 83.84-84.508v-227.545c0-17.613-14.166-31.892-31.64-31.892z" fill="#86b1e5"/><path d="m382.735 84.979c-16.893 0-30.692 13.346-31.591 30.148v-61.99c0-17.613-14.166-31.892-31.64-31.892-16.893 0-30.692 13.346-31.591 30.147v-19.5c0-17.601-14.147-31.872-31.605-31.891v428.924h74.226c46.303 0 83.84-37.835 83.84-84.508v-227.546c.001-17.613-14.165-31.892-31.639-31.892z" fill="#578df1"/></g><g fill="#4a75e5"><path d="m241.309 215.921c8.284 0 15-6.716 15-15 0 0-.016-131.959-.035-200.921-17.474 0-29.965 14.278-29.965 31.892v30.604 138.425c0 8.284 6.716 15 15 15z"/><path d="m302.914 216.909c8.284 0 15-6.716 15-15v-180.603c-16.177.922-29.125 13.897-30 30.086v150.516c0 8.285 6.715 15.001 15 15.001z"/><path d="m366.144 216.909c8.284 0 15-6.716 15-15v-116.868c-16.177.922-29.125 13.896-30 30.086v86.782c0 8.284 6.716 15 15 15z"/><path d="m176.425 239.608c8.284 0 15-6.716 15-15v-192.218c-16.436.834-29.555 14.312-30 30.978v161.24c0 8.284 6.716 15 15 15z"/></g></g><g><path d="m414.369 344.647-316.744-80.187v37.91c0 35.899 13.194 70.526 37.035 97.196 16.707 18.689 40.493 29.358 65.451 29.358h130.425c46.226.001 83.71-37.711 83.833-84.277z" fill="#667197"/><path d="m256.309 304.632v124.292h74.226c46.227 0 83.71-37.712 83.834-84.278z" fill="#4d5788"/></g></g><g><path d="m256.308 414.858c-24.424 3.445-43.179 23.763-43.179 48.314 0 24.55 18.755 44.869 43.179 48.314l10-48.314z" fill="#f5d944"/><path d="m379.411 414.343h-115.738c-2.502 0-4.959.183-7.364.522v96.614c2.405.339 4.862.522 7.364.522h120.154c9.701 0 16.85-9.069 14.586-18.501z" fill="#edbe2c"/></g></g></svg>