<svg id="Capa_1" enable-background="new 0 0 512 512" height="512" viewBox="0 0 512 512" width="512" xmlns="http://www.w3.org/2000/svg"><g><g><g><path d="m417.629 512h-323.258c-10.598 0-19.189-8.591-19.189-19.189v-473.622c0-10.598 8.591-19.189 19.189-19.189h323.259c10.598 0 19.189 8.591 19.189 19.189v473.622c-.001 10.598-8.592 19.189-19.19 19.189z" fill="#eff5ff"/><path d="m417.629 0h-161.629v512h161.629c10.598 0 19.189-8.597 19.189-19.202v-473.597c0-10.604-8.591-19.201-19.189-19.201z" fill="#dae7fd"/></g><g><g><path d="m75.182 384.531v108.267c0 10.605 8.591 19.202 19.189 19.202h323.259c10.598 0 19.189-8.597 19.189-19.202v-108.267z" fill="#667197"/><path d="m256 384.531v127.469h161.629c10.598 0 19.189-8.597 19.189-19.202v-108.267z" fill="#4d5788"/></g><g><path d="m277.864 462.137h-43.728c-8.284 0-15-6.72-15-15.01s6.716-15.01 15-15.01h43.728c8.284 0 15 6.72 15 15.01s-6.716 15.01-15 15.01z" fill="#4d5788"/><path d="m277.864 432.117h-21.864v30.02h21.864c8.284 0 15-6.72 15-15.01s-6.716-15.01-15-15.01z" fill="#313a6b"/></g></g></g><g><path d="m349.168 144.348h-19.911c-8.284 0-15 6.72-15 15.01s6.716 15.01 15 15.01h4.911v78.208c0 8.29 6.716 15.01 15 15.01s15-6.72 15-15.01v-93.218c0-8.29-6.716-15.01-15-15.01z" fill="#4d5788"/><path d="m182.811 144.848c-23.125 0-41.939 18.826-41.939 41.966 0 21.642 16.457 39.507 37.506 41.73-5.611 7.255-10.592 11.161-11.082 11.538-6.589 4.961-7.943 14.322-3.017 20.951 2.944 3.961 7.467 6.053 12.048 6.053 3.112 0 6.251-.965 8.94-2.967 1.368-1.019 33.332-25.307 38.959-70.707.341-2.151.523-4.353.523-6.598.001-23.14-18.813-41.966-41.938-41.966zm-11.938 41.966c0-6.587 5.355-11.946 11.939-11.946 6.583 0 11.938 5.359 11.938 11.946s-5.355 11.946-11.938 11.946c-6.584.001-11.939-5.358-11.939-11.946z" fill="#667197"/><g><path d="m251.056 144.348c-8.284 0-15 6.72-15 15.01s6.716 15.01 15 15.01h4.911l10.017-15.01-9.983-15.01z" fill="#667197"/><path d="m270.967 144.348h-14.966v108.897c.352 7.977 6.908 14.341 14.966 14.341 8.284 0 15-6.72 15-15.01v-93.218c0-8.29-6.715-15.01-15-15.01z" fill="#4d5788"/></g></g></g></svg>