<svg id="Capa_1" enable-background="new 0 0 512 512" height="512" viewBox="0 0 512 512" width="512" xmlns="http://www.w3.org/2000/svg"><g><g><path d="m430.452 62.987-68.24 10.001-68.239-10.001v-62.987h115.236z" fill="#c63c50"/><path d="m218.027 62.987-68.239 10.001-68.24-10.001 21.243-62.987h115.236z" fill="#578df1"/><g><path d="m324.24 62.987-68.24 10.001-68.24-10.001v-62.987h136.48z" fill="#f3d652"/><path d="m256 0v72.988l68.24-10.001v-62.987z" fill="#edbe2c"/></g></g><g><g><path d="m30.534 201.376h-15.534c-8.284 0-15-6.717-15-15.002s6.716-15.002 15-15.002h15.534c8.284 0 15 6.717 15 15.002s-6.716 15.002-15 15.002z" fill="#667197"/><path d="m497 201.376h-15.534c-8.284 0-15-6.717-15-15.002s6.716-15.002 15-15.002h15.534c8.284 0 15 6.717 15 15.002s-6.716 15.002-15 15.002z" fill="#4d5788"/></g><g><g><path d="m135.398 512h-78.183c-8.284 0-15-6.716-15-15.002v-49.596l54.091-10.001 54.091 10.001v49.596c.001 8.286-6.715 15.002-14.999 15.002z" fill="#667197"/><path d="m454.784 512h-78.182c-8.284 0-15-6.716-15-15.002v-49.596l54.091-10.001 54.091 10.001v49.596c0 8.286-6.715 15.002-15 15.002z" fill="#4d5788"/></g><g><g><g><path d="m486.976 383.136-230.976 10.002-230.976-10.002v-111.432l15.653-85.33-15.249-73.79c3.349-27.939 27.129-49.597 55.967-49.597h349.21c28.838 0 52.618 21.657 55.967 49.597l-13.678 73.79 14.082 85.33z" fill="#c63c50"/><path d="m472.894 186.374 13.678-73.79c-3.349-27.939-27.129-49.597-55.967-49.597h-174.605v330.151l230.976-10.001v-111.433z" fill="#821f31"/></g><g><g><path d="m388.009 331.866h-36.228c-8.284 0-15-6.717-15-15.002s6.716-15.002 15-15.002h36.228c8.284 0 15 6.717 15 15.002s-6.716 15.002-15 15.002z" fill="#edbe2c"/><path d="m160.219 331.866h-36.229c-8.284 0-15-6.717-15-15.002s6.716-15.002 15-15.002h36.229c8.284 0 15 6.717 15 15.002s-6.716 15.002-15 15.002z" fill="#f3d652"/></g><g><g><path d="m486.556 112.586h-461.112c-.267 2.224-.42 4.483-.42 6.778v23.225l10 43.785-10 55.327v30.003h461.951v-152.34c.001-2.296-.153-4.554-.419-6.778z" fill="#e06c6c"/><path d="m486.556 112.586h-230.556v159.118h230.976v-30.003l-10-55.327 10-43.785v-23.225c0-2.296-.154-4.554-.42-6.778z" fill="#c63c50"/></g><g><path d="m286 241.701h200.976v-99.112h-200.976c-8.284 0-15 6.716-15 15.002v69.108c0 8.285 6.716 15.002 15 15.002z" fill="#bfdafe"/><path d="m226 142.589h-200.976v99.112h200.976c8.284 0 15-6.717 15-15.002v-69.108c0-8.286-6.716-15.002-15-15.002z" fill="#dae7fd"/></g></g></g></g><g><path d="m481.75 447.402h-451.5c-16.707 0-30.25-13.543-30.25-30.25v-3.766c0-16.707 13.543-30.25 30.25-30.25h451.5c16.707 0 30.25 13.543 30.25 30.25v3.766c0 16.707-13.544 30.25-30.25 30.25z" fill="#ded7f9"/><path d="m481.75 383.137h-225.75v64.266h225.75c16.707 0 30.25-13.545 30.25-30.254v-3.759c0-16.709-13.544-30.253-30.25-30.253z" fill="#c7bdb8"/></g></g></g></g></g></svg>