<svg id="Capa_1" enable-background="new 0 0 511.852 511.852" height="512" viewBox="0 0 511.852 511.852" width="512" xmlns="http://www.w3.org/2000/svg"><g><g><g><path d="m118.38 472.52-70.323-.045c-8.285-.005-14.996-6.726-14.99-15.011l.074-100.487 10.012-15.856-9.99-14.144.074-100.532 10.011-14.979-9.989-15.021.038-50.927c.017-22.52 14.119-42.624 35.288-50.307l9.302-3.376 40.762 15.207z" fill="#4d5788"/><g fill="#edbe2c"><path d="m33.099 326.998h85.317v30h-85.317z"/><path d="m33.195 196.467h85.309v30h-85.309z"/></g></g><g><path d="m393.472 473.119 70.323-.045c8.285-.005 14.997-6.726 14.99-15.011l-.074-100.749-10.011-14.979 9.989-15.021-.074-100.532-10.011-14.979 9.989-15.021-.037-50.665c-.017-22.52-14.119-42.624-35.288-50.307l-10.951-3.974-39.113 25.805z" fill="#313a6b"/><g fill="#e9bc3e"><path d="m393.383 327.335h85.317v30h-85.317z"/><path d="m393.295 196.803h85.309v30h-85.309z"/></g></g></g><g><g><g><path d="m184.325 53.056-106.439 38.78 6.129 56.894 24.996 46.375-15.352 43.144 7.434 69.014 24.901 45.494-15.204 44.523-14.023 97.435c-1.301 9.041 5.713 17.137 14.847 17.137h286.975c9.135 0 16.148-8.095 14.847-17.137l-14.023-97.435-15.204-44.525 24.901-45.494 7.434-69.014-15.533-41.466 25.176-48.052 6.129-56.894-106.438-38.78-5.98-40.26c-1.091-7.351-7.403-12.795-14.837-12.795h-100.031c-7.449 0-13.769 5.466-14.843 12.837z" fill="#667197"/><path d="m432.317 91.836-106.438-38.78-5.98-40.26c-1.092-7.352-7.404-12.796-14.838-12.796h-49.159v511.852h142.687c9.135 0 16.148-8.095 14.847-17.137l-14.023-97.435-15.204-44.525 24.901-45.494 7.434-69.014-15.547-41.335 25.19-48.184z" fill="#4d5788"/></g><g><g><g><path d="m103.217 326.977 5.554 51.557h147.131l10-25.778-10-25.779z" fill="#f1f1fa"/><path d="m255.902 326.977v51.557h145.531l5.554-51.557z" fill="#ded7f9"/></g><g><g><path d="m255.902 367.28h-148.344l3.232 30h145.112l10-14.746z" fill="#f3d652"/><path d="m255.902 397.28h143.511l3.232-30h-146.743z" fill="#edbe2c"/></g><g><path d="m256.402 307.262h-155.309l3.232 30h152.068l10.005-15z" fill="#f3d652"/><path d="m255.902 307.262v30h149.977l3.231-30z" fill="#edbe2c"/></g></g></g><g><g><path d="m85.631 163.73 5.872 54.507h164.399l10-27.253-10-27.254z" fill="#f1f1fa"/><path d="m255.902 163.73v54.507h162.798l5.872-54.507z" fill="#ded7f9"/></g><g><path d="m84.015 148.73 3.232 30h168.655l10-15-10-15z" fill="#f3d652"/><path d="m255.902 148.73v30h167.054l3.232-30z" fill="#edbe2c"/></g><g><path d="m90.427 208.248 3.232 30h162.243l10-15-10-15z" fill="#f3d652"/><path d="m255.902 208.248v30h160.643l3.231-30z" fill="#edbe2c"/></g></g></g></g><g><path d="m240.902 0h30v511.852h-30z" fill="#f1f1fa"/><path d="m255.902 0h15v511.852h-15z" fill="#ded7f9"/></g></g></g></svg>