<svg id="Capa_1" enable-background="new 0 0 512 512" height="512" viewBox="0 0 512 512" width="512" xmlns="http://www.w3.org/2000/svg"><g><g><path d="m384.158 289.377-161.536-161.536c-6.456-6.456-6.456-16.924 0-23.381l73.589-73.589c42.415-42.414 158.084-30.497 196.047-25.244 7.34 1.016 13.099 6.775 14.115 14.115 5.253 37.963 17.17 153.631-25.245 196.047l-73.589 73.589c-6.457 6.456-16.925 6.456-23.381-.001z" fill="#f1f1fa"/><path d="m506.373 19.742c-.508-3.67-2.202-6.945-4.686-9.429l-198.297 198.296 80.768 80.768c6.456 6.456 16.924 6.456 23.38 0l73.589-73.589c42.415-42.415 30.499-158.084 25.246-196.046z" fill="#ded7f9"/></g><g><path d="m13.204 503.235-4.437-4.437c-11.688-11.688-11.688-30.639 0-42.327l324.028-324.028c11.687-11.687 30.634-11.687 42.321 0l4.44 4.44c11.687 11.687 11.687 30.635 0 42.321l-324.031 324.031c-11.687 11.687-30.635 11.687-42.321 0z" fill="#a56032"/><path d="m379.556 179.204c11.687-11.687 11.687-30.635 0-42.321l-2.22-2.22-366.352 366.352 2.22 2.22c11.687 11.687 30.634 11.687 42.321 0z" fill="#854d29"/></g></g></svg>