<svg id="Capa_1" enable-background="new 0 0 512 512" height="512" viewBox="0 0 512 512" width="512" xmlns="http://www.w3.org/2000/svg"><g><g><path d="m369.837 91.547h-227.674c-8.284 0-8.284-29.934 0-29.934h227.674c8.284-.001 8.284 29.934 0 29.934z" fill="#a26037"/><path d="m369.837 91.547h-227.674c-8.284 0-8.284-29.934 0-29.934h227.674c8.284-.001 8.284 29.934 0 29.934z" fill="#a26037"/><g><path d="m369.837 450.76h-227.674c-8.284 0-8.284-29.935 0-29.935h227.674c8.284.001 8.284 29.935 0 29.935z" fill="#bf835d"/><path d="m369.837 420.826h-113.837v29.935h113.837c8.284-.001 8.284-29.935 0-29.935z" fill="#824c2d"/></g><g><path d="m369.837 360.957h-227.674c-8.284 0-8.284-29.934 0-29.934h227.674c8.284 0 8.284 29.934 0 29.934z" fill="#bf835d"/><path d="m369.837 331.023h-113.837v29.934h113.837c8.284 0 8.284-29.934 0-29.934z" fill="#824c2d"/></g><g><path d="m369.837 271.154h-227.674c-8.284 0-8.284-29.934 0-29.934h227.674c8.284-.001 8.284 29.934 0 29.934z" fill="#bf835d"/><path d="m369.837 241.219h-113.837v29.934h113.837c8.284.001 8.284-29.934 0-29.934z" fill="#824c2d"/></g><g><path d="m369.837 181.35h-227.674c-8.284 0-8.284-29.934 0-29.934h227.674c8.284 0 8.284 29.934 0 29.934z" fill="#bf835d"/><path d="m369.837 151.416h-113.837v29.934h113.837c8.284 0 8.284-29.934 0-29.934z" fill="#824c2d"/></g><g><path d="m369.837 91.547h-227.674c-8.284 0-8.284-29.934 0-29.934h227.674c8.284-.001 8.284 29.934 0 29.934z" fill="#bf835d"/><path d="m369.837 61.612h-113.837v29.934h113.837c8.284.001 8.284-29.934 0-29.934z" fill="#824c2d"/></g></g><g><path d="m142.163 511.627c-8.284 0-15-6.701-15-14.967v-481.693c0-8.266 6.716-14.967 15-14.967s15 6.701 15 14.967v481.693c0 8.266-6.716 14.967-15 14.967z" fill="#a26037"/><path d="m369.837 512c-8.284 0-15-6.701-15-14.967v-481.693c0-8.266 6.716-14.967 15-14.967s15 6.701 15 14.967v481.693c0 8.266-6.716 14.967-15 14.967z" fill="#613921"/></g></g></svg>