<svg id="Capa_1" enable-background="new 0 0 512 512" height="512" viewBox="0 0 512 512" width="512" xmlns="http://www.w3.org/2000/svg"><g><g><g><g><g><path d="m70.347 297.427h95.124v84.979h-95.124z" fill="#c63c50"/><path d="m81.225 404c-8.284 0-15-6.716-15-15v-100c0-8.284 6.716-15 15-15s15 6.716 15 15v100c0 8.284-6.716 15-15 15z" fill="#942a3a"/></g><g><path d="m346.529 297.427h95.124v84.979h-95.124z" fill="#942a3a"/><path d="m430.775 404c-8.284 0-15-6.716-15-15v-100c0-8.284 6.716-15 15-15s15 6.716 15 15v100c0 8.284-6.716 15-15 15z" fill="#821f31"/></g></g><g><g><path d="m144.497 197.386h223.007v285.062h-223.007z" fill="#e06c6c"/><path d="m256 197.386h111.503v285.062h-111.503z" fill="#c63c50"/></g><g><circle cx="256" cy="339.917" fill="#c63c50" r="46.312"/><path d="m256 293.605v92.623c25.577 0 46.311-20.734 46.311-46.311s-20.734-46.312-46.311-46.312z" fill="#942a3a"/></g></g></g><g><path d="m386.341 512h-260.682c-8.284 0-15-6.716-15-15v-33.9c0-8.284 6.716-15 15-15h260.681c8.284 0 15 6.716 15 15v33.9c.001 8.284-6.715 15-14.999 15z" fill="#942a3a"/><path d="m386.341 448.1h-130.341v63.9h130.341c8.284 0 15-6.716 15-15v-33.9c0-8.284-6.716-15-15-15z" fill="#821f31"/></g></g><g><g><g><path d="m287.62 90.906h-63.24v-75.906c0-8.284 6.716-15 15-15h33.239c8.284 0 15 6.716 15 15v75.906z" fill="#942a3a"/><path d="m272.62 0h-16.62v90.907h31.62v-75.907c0-8.284-6.716-15-15-15z" fill="#821f31"/></g><g><path d="m381.757 188.127c0-69.454-56.303-125.757-125.757-125.757s-125.757 56.303-125.757 125.757z" fill="#e06c6c"/><path d="m256 188.127h125.757c0-69.454-56.303-125.757-125.757-125.757z" fill="#c63c50"/></g></g><g><path d="m386.341 229.546h-260.682c-8.284 0-15-6.716-15-15v-33.9c0-8.284 6.716-15 15-15h260.681c8.284 0 15 6.716 15 15v33.9c.001 8.285-6.715 15-14.999 15z" fill="#942a3a"/><path d="m386.341 165.647h-130.341v63.9h130.341c8.284 0 15-6.716 15-15v-33.9c0-8.284-6.716-15-15-15z" fill="#821f31"/></g></g></g></svg>