<svg id="Capa_1" enable-background="new 0 0 512 512" height="512" viewBox="0 0 512 512" width="512" xmlns="http://www.w3.org/2000/svg"><g><g><path d="m416.656 45h80.328v266.335h-80.328z" fill="#e58f22"/><path d="m256 45h80.328v266.335h-80.328z" fill="#e58f22"/><path d="m175.672 45h80.328v266.335h-80.328z" fill="#f3d652"/><path d="m95.344 45h80.328v266.335h-80.328z" fill="#edbe2c"/><path d="m15.015 45h80.328v266.335h-80.328z" fill="#f3d652"/><g><path d="m336.328 45h80.328v377.192h-80.328z" fill="#edbe2c"/><path d="m387.855 512h-22.726c-4.869 0-9.092-3.368-10.174-8.116l-18.627-81.692h80.328l-18.627 81.692c-1.082 4.748-5.304 8.116-10.174 8.116z" fill="#ded7f9"/><path d="m416.896 437.192h-80.806c-8.284 0-15-6.716-15-15s6.716-15 15-15h80.806c8.284 0 15 6.716 15 15 0 8.285-6.716 15-15 15z" fill="#942a3a"/></g></g><path d="m497 356.335c-8.284 0-15-6.716-15-15v-326.335c0-8.284 6.716-15 15-15s15 6.716 15 15v326.335c0 8.284-6.716 15-15 15z" fill="#736e6e"/><path d="m15 356.335c-8.284 0-15-6.716-15-15v-326.335c0-8.284 6.716-15 15-15s15 6.716 15 15v326.335c0 8.284-6.716 15-15 15z" fill="#c7bdb8"/></g></svg>