<svg id="Capa_1" enable-background="new 0 0 512 512" height="512" viewBox="0 0 512 512" width="512" xmlns="http://www.w3.org/2000/svg"><g><g><path d="m358.609 314.373v-156.19c0-32.583-26.762-59.092-59.656-59.092h-108.455c-8.284 0-15-6.716-15-15s6.716-15 15-15h108.455c49.436 0 89.656 39.967 89.656 89.092v156.19c0 8.284-30 8.284-30 0z" fill="#578df1"/><g><path d="m403.837 359.026c-8.284 0-15-6.716-15-15 0-8.271-6.831-15-15.228-15s-15.228 6.729-15.228 15c0 8.284-6.716 15-15 15s-15-6.716-15-15c0-24.814 20.289-45 45.228-45s45.228 20.186 45.228 45c0 8.284-6.716 15-15 15z" fill="#c7bdb8"/><g><path d="m373.609 269.026c-24.939 0-45.228-20.187-45.228-45s20.289-45 45.228-45 45.228 20.187 45.228 45c0 24.814-20.289 45-45.228 45z" fill="#4d5788"/><path d="m373.609 239.026c-8.397 0-15.228-6.729-15.228-15s6.831-15 15.228-15 15.228 6.729 15.228 15-6.831 15-15.228 15z" fill="#eff5ff"/></g></g></g><g><g><g><path d="m158.745 0h64.662v146.781h-64.662z" fill="#e9bc3e" transform="matrix(-1 0 0 -1 382.151 146.781)"/><path d="m191.076 0h32.331v146.781h-32.331z" fill="#e58f22"/></g><g><path d="m221.664 30h-61.177c-8.284 0-15-6.716-15-15s6.716-15 15-15h61.177c8.284 0 15 6.716 15 15s-6.716 15-15 15z" fill="#f3d652"/><path d="m221.664 0h-30.588v30h30.588c8.284 0 15-6.716 15-15s-6.716-15-15-15z" fill="#e9bc3e"/></g></g><g><g><path d="m197.509 512h-12.866c-50.523 0-91.48-40.957-91.48-91.48v-255.65c0-50.523 40.957-91.48 91.48-91.48h12.866c50.523 0 91.48 40.957 91.48 91.48v255.65c-.001 50.523-40.957 91.48-91.48 91.48z" fill="#f3d652"/><path d="m197.509 73.391h-6.433v438.609h6.433c50.523 0 91.48-40.957 91.48-91.48v-255.65c-.001-50.523-40.957-91.479-91.48-91.479z" fill="#e9bc3e"/></g><g><g><path d="m93.163 170.564h195.825v63.734h-195.825z" fill="#edbe2c"/><path d="m191.076 170.564h97.913v63.735h-97.913z" fill="#e58f22"/></g><g><path d="m93.163 351.092h195.825v63.734h-195.825z" fill="#edbe2c"/><path d="m191.076 351.092h97.913v63.734h-97.913z" fill="#e58f22"/></g></g></g></g></g></svg>