<svg id="Capa_1" enable-background="new 0 0 512 512" height="512" viewBox="0 0 512 512" width="512" xmlns="http://www.w3.org/2000/svg"><g><g><g><path d="m256 512c-68.256 0-224.901-222.622-224.901-222.622s50.16-219.817 53.221-222.603c47.101-42.855 107.59-66.311 171.68-66.311 68.256 0 132.427 26.605 180.691 74.912 17.544 17.56 32.222 37.223 43.801 58.421l-10.227 54.013 41.133 59.913c.092 2.828.138 5.664.138 8.508 0 68.318-26.58 132.548-74.845 180.855-48.264 48.309-112.435 74.914-180.691 74.914z" fill="#eff5ff"/><path d="m511.399 247.724-41.133-59.913 10.227-54.013c-11.579-21.198-26.257-40.862-43.801-58.421-44.636-44.677-102.88-70.772-165.374-74.446v510.601c62.494-3.674 120.738-29.769 165.374-74.445 48.265-48.308 74.845-112.537 74.845-180.855 0-2.844-.046-5.68-.138-8.508z" fill="#bfdafe"/></g><g><path d="m510.352 231.432c-.008-.057-.025-.113-.03-.17-3.318-34.267-13.394-67.11-29.906-97.422h-49.729c-31.33 0-56.818 25.545-56.818 56.943s25.488 56.942 56.818 56.942h80.695c-.178-5.463-.515-10.896-1.03-16.293z" fill="#4f7976"/><g><path d="m237.556 348.301c31.33 0 56.818-25.712 56.818-57.316 0-31.15-25.488-56.492-56.818-56.492h-102.09c-14.788 0-26.818-12.074-26.818-26.915s12.031-26.915 26.818-26.915c.081 0 .161-.001.242-.002 31.114-.254 56.349-25.699 56.349-56.941 0-31.398-25.488-56.942-56.818-56.942h-50.917c-3.061 2.785-6.068 5.65-9.014 8.598-48.264 48.308-74.845 112.537-74.845 180.856 0 68.318 26.58 132.547 74.845 180.855 47.816 47.86 111.247 74.401 178.793 74.89h.06.038c1.987 0 3.956-.395 5.789-1.163 12.39-5.188 22.463-14.525 28.364-26.288 3.939-7.851 6.021-16.652 6.021-25.452 0-31.398-25.488-56.942-56.818-56.942-14.788 0-26.818-12.074-26.818-26.915 0-14.842 12.031-26.916 26.819-26.916z" fill="#5a9ea7"/><g fill="#4f7976"><path d="m271.318 337.051c13.977-10.451 23.055-27.207 23.055-46.066 0-18.587-9.079-35.102-23.055-45.404z"/><path d="m271.318 413.308v91.145c7.19-5.195 13.061-12.008 17.034-19.928 3.939-7.851 6.021-16.652 6.021-25.452 0-18.735-9.078-35.382-23.055-45.765z"/></g></g></g></g><g><g><path d="m272.733 312.434c-28.435 0-49.438-23.392-46.219-50.131 3.431-28.492 49.318-57.318 45.286-86.232-.371-2.663 2.645-4.465 4.774-2.826 12.186 9.383 34.633 34.166 17.631 81.521 0 0 8.822-.976 13.537-8.455 1.355-2.149 4.576-1.842 5.407.559 10.267 29.652-3.495 65.564-40.416 65.564z" fill="#e9bc3e"/><path d="m313.149 246.87c-.831-2.401-4.052-2.708-5.407-.559-4.715 7.479-13.537 8.455-13.537 8.455 17.002-47.355-5.445-72.137-17.631-81.521-2.129-1.639-5.145.164-4.774 2.826.469 3.365.255 6.729-.482 10.091v126.235c.471.013.939.036 1.415.036 36.921.001 50.683-35.911 40.416-65.563z" fill="#e58f22"/></g><g><path d="m468.285 139.815c-28.435 0-49.438-23.392-46.219-50.131 3.431-28.493 49.318-57.318 45.286-86.232-.371-2.663 2.645-4.465 4.774-2.826 12.186 9.383 34.633 34.166 17.631 81.521 0 0 8.822-.976 13.537-8.455 1.355-2.149 4.576-1.842 5.407.559 10.268 29.651-3.494 65.564-40.416 65.564z" fill="#e9bc3e"/><path d="m508.701 74.25c-.831-2.401-4.052-2.708-5.407-.559-4.715 7.479-13.537 8.455-13.537 8.455 17.002-47.355-5.445-72.137-17.631-81.521-2.129-1.639-5.145.164-4.774 2.826.469 3.365.255 6.729-.482 10.091v126.235c.471.013.939.036 1.415.036 36.922.002 50.684-35.911 40.416-65.563z" fill="#e58f22"/></g><g><path d="m46.545 139.815c-28.435 0-49.438-23.392-46.219-50.131 3.431-28.492 49.318-57.318 45.286-86.232-.371-2.663 2.645-4.465 4.774-2.826 12.186 9.383 34.633 34.166 17.631 81.521 0 0 8.822-.976 13.537-8.455 1.355-2.149 4.576-1.842 5.407.559 10.267 29.651-3.495 65.564-40.416 65.564z" fill="#e9bc3e"/><path d="m86.961 74.25c-.831-2.401-4.052-2.708-5.407-.559-4.715 7.479-13.537 8.455-13.537 8.455 17.002-47.355-5.445-72.137-17.631-81.521-2.129-1.639-5.145.164-4.774 2.826.469 3.365.255 6.729-.482 10.091v126.235c.471.013.939.036 1.415.036 36.921.002 50.683-35.911 40.416-65.563z" fill="#e58f22"/></g></g></g></svg>