<svg id="Capa_1" enable-background="new 0 0 512 512" height="512" viewBox="0 0 512 512" width="512" xmlns="http://www.w3.org/2000/svg"><g><g><path d="m352.625 122.094c-8.284 0-15-6.716-15-15v-77.094h-163.251v77.094c0 8.284-6.716 15-15 15s-15-6.716-15-15v-92.094c0-8.284 6.716-15 15-15h193.251c8.284 0 15 6.716 15 15v92.094c0 8.284-6.715 15-15 15z" fill="#ded7f9"/><path d="m352.625 0h-96.625v30h81.625v77.094c0 8.284 6.716 15 15 15s15-6.716 15-15v-92.094c0-8.284-6.715-15-15-15z" fill="#c3bfd9"/></g><g><g><g><path d="m497 512h-482c-8.284 0-15-6.716-15-15v-328.854l256-20 256 20v328.854c0 8.284-6.716 15-15 15z" fill="#667197"/><path d="m256 148.146v363.854h241c8.284 0 15-6.716 15-15v-328.854z" fill="#4d5788"/></g><g><path d="m0 168.146h512v-48.646c0-8.284-6.716-15-15-15h-482c-8.284 0-15 6.716-15 15z" fill="#f1f1fa"/><path d="m497 104.5h-241v63.646h256v-48.646c0-8.284-6.716-15-15-15z" fill="#ded7f9"/></g></g><g><g><path d="m413.979 224.111h-31.027c-8.284 0-15-6.716-15-15v-104.611h61.027v104.61c0 8.285-6.716 15.001-15 15.001z" fill="#c3bfd9"/><path d="m129.048 224.111h-31.027c-8.284 0-15-6.716-15-15v-104.611h61.027v104.61c0 8.285-6.716 15.001-15 15.001z" fill="#ded7f9"/></g><g><path d="m329.231 306.163h-42.718v-42.718c0-8.284-6.716-15-15-15h-31.027c-8.284 0-15 6.716-15 15v42.718h-42.718c-8.284 0-15 6.716-15 15v31.027c0 8.284 6.716 15 15 15h42.718v42.718c0 8.284 6.716 15 15 15h31.027c8.284 0 15-6.716 15-15v-42.718h42.718c8.284 0 15-6.716 15-15v-31.027c0-8.284-6.715-15-15-15z" fill="#e06c6c"/><path d="m329.231 306.163h-42.718v-42.718c0-8.284-6.716-15-15-15h-15.513v176.463h15.513c8.284 0 15-6.716 15-15v-42.718h42.718c8.284 0 15-6.716 15-15v-31.027c0-8.284-6.715-15-15-15z" fill="#c63c50"/></g></g></g></g></svg>