<svg id="Capa_1" enable-background="new 0 0 512 512" height="512" viewBox="0 0 512 512" width="512" xmlns="http://www.w3.org/2000/svg"><g><g><g><path d="m427.989 215.729h-59.409v-127.372c0-8.284 6.716-15 15-15h29.409c8.284 0 15 6.716 15 15z" fill="#4d5788"/><g><g><path d="m428.026 496.841h-344.052v-293.139l172.026-190 172.026 190z" fill="#f1f1fa"/><path d="m256 13.702v483.139h172.026v-293.139z" fill="#ded7f9"/></g><g><path d="m469.25 228.154s-202.213-223.331-202.225-223.344c-5.864-6.418-16.248-6.419-22.09.035l-202.185 223.309c-5.551 6.132-5.098 15.618 1.013 21.189 2.864 2.61 6.462 3.898 10.048 3.898 4.067 0 8.119-1.655 11.069-4.914l191.12-211.089 191.12 211.089c2.95 3.258 7.002 4.914 11.069 4.914 3.586 0 7.185-1.287 10.048-3.898 6.111-5.571 6.564-15.057 1.013-21.189z" fill="#667197"/><path d="m469.25 228.154s-202.213-223.331-202.225-223.344c-2.925-3.202-6.975-4.806-11.025-4.809v37.237l191.12 211.088c2.95 3.258 7.002 4.913 11.069 4.913 3.586 0 7.185-1.287 10.048-3.897 6.111-5.57 6.564-15.056 1.013-21.188z" fill="#4d5788"/></g></g></g><g><path d="m258.595 429.064c-52.153 0-90.676-43.069-84.771-92.301 6.336-52.826 91.633-106.274 82.892-159.884-.729-4.469 4.265-7.613 7.873-4.893 22.076 16.639 65.067 62.323 33.388 150.899 0 0 16.9-1.878 25.388-16.495 2.111-3.636 7.544-3.141 8.959.82 19.579 54.81-5.54 121.854-73.729 121.854z" fill="#e9bc3e"/><path d="m332.325 307.21c-1.415-3.961-6.848-4.456-8.959-.82-8.488 14.617-25.388 16.495-25.388 16.495 31.679-88.576-11.313-134.26-33.388-150.899-3.609-2.72-8.602.424-7.873 4.893 1.072 6.576.723 13.15-.716 19.721v232.426c.861.024 1.726.038 2.595.038 68.188 0 93.307-67.044 73.729-121.854z" fill="#e58f22"/></g></g><g><path d="m497.051 512h-482.102c-8.256 0-14.949-6.716-14.949-15s6.693-15 14.949-15h482.102c8.256 0 14.949 6.716 14.949 15s-6.693 15-14.949 15z" fill="#667197"/><path d="m497.051 482h-241.051v30h241.051c8.256 0 14.949-6.716 14.949-15s-6.693-15-14.949-15z" fill="#4d5788"/></g></g></svg>