<svg id="Capa_1" enable-background="new 0 0 512 512" height="512" viewBox="0 0 512 512" width="512" xmlns="http://www.w3.org/2000/svg"><g><g><g><g><path d="m187.678 69.661-44.677-44.728c-.018-.018-.019-.048-.002-.067 5.438-6.136 5.011-15.651-1.318-21.233-5.992-5.285-15.168-4.672-20.814.981l-86.537 86.635c-5.858 5.864-5.858 15.373 0 21.237 2.929 2.932 6.768 4.399 10.606 4.399 3.556 0 7.102-1.275 9.935-3.791.019-.017.049-.017.067.002l44.677 44.727c2.929 2.932 6.768 4.399 10.606 4.399 3.839 0 7.678-1.466 10.606-4.399l66.849-66.925c2.813-2.816 4.394-6.635 4.394-10.618.001-3.984-1.579-7.803-4.392-10.619z" fill="#2e3e6e"/><path d="m78.879 46.721c-.02-.02-.052-.02-.072 0l-44.477 44.528c-5.858 5.864-5.858 15.373 0 21.237 2.929 2.932 6.768 4.399 10.606 4.399 3.556 0 7.102-1.275 9.935-3.791.019-.017.049-.017.067.002l44.677 44.727c2.929 2.932 6.768 4.399 10.606 4.399 3.839 0 7.678-1.466 10.606-4.399l34.478-34.517c.02-.02.02-.052 0-.071z" fill="#1c2a5d"/></g><g><path d="m392.209.155h-146.457c-16.421 0-31.897 6.124-43.575 17.243l-154.901 143.67c-11.713 11.152-18.431 26.652-17.34 42.527v222.011c-1.091 47.637 39.269 86.394 88.879 86.394h273.395c49.609 0 89.97-38.756 89.97-86.394v-339.058c-.001-47.637-40.361-86.393-89.971-86.393zm16.338 125.453c0 18.36-14.867 33.244-33.207 33.244h-204.404c-7.621 0-11.333-9.317-5.805-14.568l52.222-49.602c1.567-1.488 3.645-2.318 5.805-2.318h152.182c18.34-.001 33.207 14.883 33.207 33.244z" fill="#667197"/><path d="m392.209.156h-110.147v92.208h93.278c18.339 0 33.207 14.884 33.207 33.244 0 18.36-14.867 33.244-33.207 33.244h-93.278v353.148h110.147c49.609 0 89.97-38.756 89.97-86.394v-339.058c0-47.637-40.36-86.392-89.97-86.392z" fill="#4d5788"/></g></g></g><g><path d="m303.275 341.919 92.349-92.349c5.858-5.857 5.858-15.355 0-21.213-5.857-5.857-15.355-5.857-21.213 0l-92.349 92.349-92.349-92.349c-5.856-5.859-15.355-5.857-21.213 0s-5.858 15.355 0 21.213l92.349 92.349-92.349 92.35c-5.858 5.857-5.858 15.355 0 21.213 2.929 2.929 6.768 4.394 10.607 4.394s7.678-1.465 10.606-4.394l92.349-92.349 92.349 92.349c2.929 2.93 6.768 4.394 10.606 4.394s7.678-1.465 10.607-4.394c5.858-5.857 5.858-15.355 0-21.213z" fill="#f5d944"/><path d="m303.275 341.919 92.349-92.349c5.858-5.857 5.858-15.355 0-21.213-5.857-5.857-15.355-5.857-21.213 0l-92.349 92.349v42.426l92.349 92.349c2.929 2.93 6.768 4.394 10.607 4.394 3.838 0 7.678-1.465 10.606-4.394 5.858-5.857 5.858-15.355 0-21.213z" fill="#edbe2c"/></g></g></svg>