<svg id="Capa_1" enable-background="new 0 0 512 512" height="512" viewBox="0 0 512 512" width="512" xmlns="http://www.w3.org/2000/svg"><g><g><g><path d="m471.387 512h-430.774c-8.284 0-15-6.716-15-15v-482c0-8.284 6.716-15 15-15h430.774c8.284 0 15 6.716 15 15v482c0 8.284-6.716 15-15 15z" fill="#e06c6c"/><path d="m471.387 0h-215.387v512h215.387c8.284 0 15-6.716 15-15v-482c0-8.284-6.716-15-15-15z" fill="#c63c50"/></g><g><g><path d="m89.194 433.419v-171.924c0-8.284 6.716-15 15-15h303.612c8.284 0 15 6.716 15 15v171.924c0 8.284-6.716 15-15 15h-303.612c-8.284 0-15-6.716-15-15z" fill="#ded7f9"/><path d="m407.806 246.495h-151.806v201.924h151.806c8.284 0 15-6.716 15-15v-171.924c0-8.285-6.716-15-15-15z" fill="#c3bfd9"/></g><g><g><path d="m256 351.81c-8.284 0-15 6.716-15 15v81.609h30v-81.609c0-8.284-6.716-15-15-15z" fill="#a26037"/><path d="m256 351.81v96.609h15v-81.609c0-8.284-6.716-15-15-15z" fill="#613921"/></g><g><g><path d="m160.22 358.424v-33.92c0-8.284 6.716-15 15-15h35.62l15 10 15-10h15.16l10 31.963-10 31.957h-15.16l-15-10-15 10h-35.62c-8.284 0-15-6.716-15-15z" fill="#f1f1fa"/><path d="m336.78 309.505h-35.62l-15 10-15-10h-15.16v63.919h15.16l15-10 15 10h35.62c8.284 0 15-6.716 15-15v-33.919c0-8.285-6.716-15-15-15z" fill="#ded7f9"/></g><g><path d="m210.84 309.505h30v63.919h-30z" fill="#e06c6c"/><path d="m271.16 309.505h30v63.919h-30z" fill="#c63c50"/></g></g></g></g></g><g><path d="m257.539 200.956c-30.924 0-53.767-25.417-50.265-54.471 3.592-29.801 49.969-59.938 49.52-90.173-.064-4.331 5.137-6.607 8.384-3.74 13.513 11.929 32.685 38.494 15.714 85.723 0 0 7.788-.861 13.081-6.975 2.592-2.995 7.505-2.02 8.595 1.788 9.017 31.501-6.275 67.848-45.029 67.848z" fill="#f3d652"/><path d="m302.566 133.11c-1.09-3.808-6.002-4.783-8.595-1.788-5.293 6.114-13.08 6.975-13.08 6.975 16.972-47.229-2.201-73.794-15.714-85.723-3.247-2.867-8.448-.591-8.384 3.74.037 2.484-.248 4.968-.794 7.451v137.153c.513.014 1.022.04 1.539.04 38.755-.002 54.047-36.349 45.028-67.848z" fill="#e9bc3e"/></g></g></svg>