<svg id="Capa_1" enable-background="new 0 0 512 512" height="512" viewBox="0 0 512 512" width="512" xmlns="http://www.w3.org/2000/svg"><g><path d="m477.771 79.702 9.003 9.003c22.688 22.688 34.703 68.221 16.046 93.191-2.933 3.925-8.645 4.381-12.109.916l-58.025-58.024 15.472-29.614z" fill="#bfdafe"/><g><g><path d="m110.323 356.689 352.295-352.296c2.813-2.813 6.628-4.393 10.607-4.393h23.775c8.284 0 15 6.716 15 15v23.775c0 3.978-1.58 7.793-4.393 10.607l-352.296 352.295-29.558-15.415z" fill="#a56032"/><path d="m512 38.775v-23.775c0-4.226-1.754-8.037-4.566-10.763l-381.798 381.799.118.226 29.558 15.415 352.295-352.295c2.813-2.813 4.393-6.628 4.393-10.607z" fill="#854d29"/></g><g><path d="m110.323 356.689-101.006 101.005c-12.423 12.423-12.423 32.565 0 44.988 12.423 12.423 32.565 12.423 44.988 0l101.006-101.006z" fill="#667197"/><path d="m132.653 379.018-123.496 123.496c.055.055.105.113.16.168 12.423 12.423 32.565 12.423 44.988 0l101.006-101.006z" fill="#4d5788"/></g></g></g></svg>