<svg id="Capa_1" enable-background="new 0 0 512 512" height="512" viewBox="0 0 512 512" width="512" xmlns="http://www.w3.org/2000/svg"><g><g><path d="m14.557 505.587-2.938-2.278c-13.202-10.238-15.496-29.101-5.122-42.132l358.017-449.709c10.374-13.03 29.486-15.294 42.688-5.055l2.938 2.278c13.202 10.238 15.496 29.101 5.122 42.132l-358.017 449.709c-10.373 13.03-29.485 15.293-42.688 5.055z" fill="#a26037"/><path d="m410.139 8.691-398.519 494.618 2.938 2.278c13.202 10.238 32.315 7.975 42.688-5.056l358.015-449.709c10.374-13.03 8.081-31.893-5.122-42.131z" fill="#824c2d"/></g><g><g><path d="m284.311 21.972c-19.687-15.407-46.158-16.546-66.672-4.888-9.898 5.625-10.968 19.309-2.019 26.312l63.358 49.585c8.972 7.022 22.276 2.836 25.518-8.003 6.706-22.421-.517-47.613-20.185-63.006z" fill="#f1f1fa"/><path d="m225.757 13.253c-2.785 1.068-5.5 2.344-8.117 3.831-9.898 5.625-10.969 19.309-2.019 26.312l63.358 49.585c8.972 7.022 22.276 2.836 25.518-8.003.868-2.904 1.498-5.854 1.903-8.823z" fill="#ded7f9"/></g><g><g><path d="m357.94 219.139-89.155-111.639c-4.619-5.784-4.617-13.939.004-19.72l39.609-49.553c4.639-5.804 12.715-7.694 19.5-4.563l128.55 59.309-43.047 66.646z" fill="#c63c50"/><path d="m288.956 62.549-20.167 25.23c-4.621 5.782-4.623 13.937-.004 19.721l89.155 111.639 55.462-59.521z" fill="#821f31"/></g><g><path d="m357.94 219.139 30.42 38.092c6.458 8.087 18.877 8.09 25.339.005l94.83-118.638c6.442-8.06 3.588-19.941-5.835-24.289l-46.246-21.336z" fill="#f1f1fa"/><path d="m407.815 155.26-49.875 63.879 30.42 38.092c6.458 8.087 18.877 8.09 25.339.005l47.948-59.986z" fill="#ded7f9"/></g></g></g></g></svg>