<svg id="Capa_1" enable-background="new 0 0 512.002 512.002" height="512" viewBox="0 0 512.002 512.002" width="512" xmlns="http://www.w3.org/2000/svg"><g><g><g><g><path d="m75.002 143.443c-8.284 0-15-6.716-15-15v-66.133c0-8.284 30-8.284 30 0v66.133c0 8.284-6.716 15-15 15z" fill="#ded7f9"/><path d="m299.884 143.443c-8.284 0-15-6.716-15-15v-92.104c0-8.284 6.716-15 15-15s15 6.716 15 15v92.104c0 8.284-6.715 15-15 15z" fill="#c3bfd9"/></g><g><path d="m14.983 84.227c-7.417 0-13.864-5.499-14.853-13.052-1.077-8.214 4.709-15.746 12.923-16.822l413.61-54.223c8.211-1.082 15.746 4.709 16.822 12.923 1.077 8.214-4.709 15.746-12.923 16.822l-413.61 54.223c-.661.087-1.32.129-1.969.129z" fill="#f1f1fa"/><path d="m443.485 13.053c-1.077-8.214-8.611-14.004-16.822-12.923l-243.418 31.911v30.256l247.318-32.423c8.213-1.076 14-8.607 12.922-16.821z" fill="#ded7f9"/></g></g><g><g><g><path d="m497.002 480.135h-130.595l-10-84.241 10-67.167 64.87-10 80.725 10v136.408c0 8.284-6.716 15-15 15z" fill="#821f31"/><path d="m512.002 388.163h-35.973c-8.284 0-15 6.716-15 15s6.716 15 15 15h35.973z" fill="#f3d652"/></g><g><path d="m409.641 231.646c-8.284 0-15-6.716-15-15v-24.823c0-8.284 6.716-15 15-15s15 6.716 15 15v24.823c0 8.284-6.716 15-15 15z" fill="#e9bc3e"/><path d="m366.407 216.708-10 56.009 10 56.009h145.595l-47.557-103.292c-2.449-5.319-7.769-8.727-13.625-8.727h-84.413z" fill="#ded7f9"/></g></g><g><g><path d="m366.407 480.135h-351.324c-8.284 0-15-6.716-15-15v-332.564c0-8.284 6.716-15 15-15h336.324c8.284 0 15 6.716 15 15z" fill="#e06c6c"/><path d="m351.407 117.571h-168.162v362.564h183.162v-347.564c0-8.284-6.716-15-15-15z" fill="#c63c50"/></g><g><path d="m309.815 190.846c-8.284 0-15 6.716-15 15v16.003h-42.07v-16.003c0-8.284-6.716-15-15-15s-15 6.716-15 15v182.006c0 8.284 6.716 15 15 15s15-6.716 15-15v-16.003h42.07v16.003c0 8.284 6.716 15 15 15s15-6.716 15-15v-182.006c0-8.284-6.716-15-15-15zm-15 61.003v30h-42.07v-30zm-42.071 90v-30h42.07v30z" fill="#ded7f9"/><g><circle cx="87.658" cy="296.866" fill="#e9bc3e" r="49.693"/><g fill="#f3d652"><path d="m87.644 231.078c-13.185 0-25.467 3.914-35.772 10.621v-29.347c0-8.284-6.716-15-15-15s-15 6.716-15 15v84.497c0 36.266 29.505 65.771 65.771 65.771 13.185 0 25.466-3.914 35.771-10.621v33.528c0 8.284 6.716 15 15 15s15-6.716 15-15v-88.678c.001-36.266-29.504-65.771-65.77-65.771zm0 101.542c-19.725 0-35.772-16.047-35.772-35.771 0-19.725 16.047-35.772 35.772-35.772 19.724 0 35.771 16.047 35.771 35.772 0 19.724-16.047 35.771-35.771 35.771z"/><path d="m87.642 311.852c-6.253 0-12.02-4.061-14.114-9.952-2.091-5.884-.262-12.69 4.604-16.647 4.854-3.947 11.843-4.508 17.217-1.265 5.351 3.229 8.258 9.643 7.002 15.795-1.412 6.918-7.624 12.069-14.709 12.069z"/></g></g></g></g></g></g><g><g><circle cx="215.105" cy="480.135" fill="#4d5788" r="31.868"/><g fill="#667197"><circle cx="151.37" cy="480.135" r="31.868"/><circle cx="87.635" cy="480.135" r="31.868"/></g></g><circle cx="399.41" cy="480.135" fill="#4d5788" r="31.868"/></g></g></svg>