<svg id="Capa_1" enable-background="new 0 0 512 512" height="512" viewBox="0 0 512 512" width="512" xmlns="http://www.w3.org/2000/svg"><g><g><path d="m167.036 478.794c-25.038 0-45.407-20.413-45.407-45.504 0-8.513-6.912-15.44-15.407-15.44s-15.407 6.927-15.407 15.44c0 25.092-20.37 45.504-45.407 45.504s-45.408-20.412-45.408-45.504c0-8.302 6.716-15.032 15-15.032s15 6.73 15 15.032c0 8.513 6.912 15.44 15.407 15.44s15.407-6.927 15.407-15.44c0-25.092 20.37-45.504 45.407-45.504s45.407 20.413 45.407 45.504c0 8.513 6.912 15.44 15.407 15.44 8.496 0 15.407-6.927 15.407-15.44 0-8.302 6.716-15.032 15-15.032s15 6.73 15 15.032c.001 25.092-20.368 45.504-45.406 45.504z" fill="#4d5788"/><g><path d="m313.271 371.951c-17.241 0-31.218-14.007-31.218-31.285v-169.333c0-17.278 13.977-31.285 31.218-31.285h39.022c8.284 0 15-6.73 15-15.032v-109.984c0-8.302-6.716-15.032-15-15.032h-95.069c-41.656 0-75.424 33.84-75.424 75.584v360.833c0 41.744 33.768 75.584 75.423 75.584h95.069c8.284 0 15-6.73 15-15.032v-109.986c0-8.302-6.716-15.032-15-15.032z" fill="#667197"/><path d="m313.271 140.049h39.022c8.284 0 15-6.73 15-15.032v-109.985c0-8.302-6.716-15.032-15-15.032h-95.069c-1.315 0-2.623.035-3.922.101v511.797c1.299.067 2.606.102 3.922.102h95.069c8.284 0 15-6.73 15-15.032v-109.985c0-8.302-6.716-15.032-15-15.032h-39.022c-17.241 0-31.218-14.007-31.218-31.285v-169.333c0-17.278 13.976-31.284 31.218-31.284z" fill="#4d5788"/></g></g><g><path d="m431.722 356.819c-52.218 0-90.789-43.009-84.876-92.173 6.1-50.721 85.284-102.016 83.597-153.477-.228-6.95 7.95-10.835 13.204-6.292 22.851 19.758 56.575 64.847 27.507 145.91 0 0 13.648-1.512 22.586-12.394 4.063-4.947 12.01-3.235 13.811 2.913 15.658 53.464-10.103 115.513-75.829 115.513z" fill="#e9bc3e"/><path d="m507.55 241.307c-1.801-6.148-9.748-7.861-13.811-2.913-8.938 10.882-22.586 12.394-22.586 12.394 29.068-81.063-4.656-126.152-27.507-145.91-3.915-3.385-9.451-2.086-11.925 1.67v250.272c65.727-.001 91.488-62.05 75.829-115.513z" fill="#e58f22"/></g></g></svg>