<svg id="Capa_1" enable-background="new 0 0 512 512" height="512" viewBox="0 0 512 512" width="512" xmlns="http://www.w3.org/2000/svg"><g><g><g><g><path d="m391.332 72.087-135.332 10-135.332-10v-57.087c0-8.284 6.716-15 15-15h240.664c8.284 0 15 6.716 15 15z" fill="#f1f1fa"/><path d="m376.332 0h-120.332v82.087l135.332-10v-57.087c0-8.284-6.716-15-15-15z" fill="#eff5ff"/></g><g><path d="m305.383 0h30v72.087h-30z" fill="#bfdafe"/><path d="m176.617 0h30v72.087h-30z" fill="#dae7fd"/><g><path d="m241 0h30v72.087h-30z" fill="#dae7fd"/><path d="m256 0h15v72.087h-15z" fill="#bfdafe"/></g></g></g><g><path d="m120.668 163.452 48.204 91.013 87.128 10 87.128-10 48.204-91.013-135.332-10z" fill="#4d5788"/><path d="m256 153.452v111.013l87.128-10 48.204-91.013z" fill="#313a6b"/></g><g><path d="m168.871 254.465h174.257v257.535h-174.257z" fill="#667197"/><path d="m256 254.465h87.128v257.535h-87.128z" fill="#4d5788"/></g><g><path d="m168.871 439.586h174.257v72.293h-174.257z" fill="#4d5788"/><path d="m256 439.586h87.128v72.293h-87.128z" fill="#313a6b"/></g><g><path d="m120.668 72.087h270.664v91.366h-270.664z" fill="#667197"/><path d="m256 72.087h135.332v91.366h-135.332z" fill="#4d5788"/></g></g><g><path d="m256 379.743c-8.284 0-15-6.716-15-15v-31.09c0-8.284 6.716-15 15-15s15 6.716 15 15v31.09c0 8.284-6.716 15-15 15z" fill="#f3d652"/><path d="m256 318.653v61.09c8.284 0 15-6.716 15-15v-31.09c0-8.284-6.716-15-15-15z" fill="#edbe2c"/></g></g></svg>