<svg id="Capa_1" enable-background="new 0 0 512 512" height="512" viewBox="0 0 512 512" width="512" xmlns="http://www.w3.org/2000/svg"><g><g><g><path d="m415.231 456.878h-318.462l26.404-70.651 5.684-67.554 24.646-106.154 22.34-53.147 2.34-53.147 21.965-94.605c1.579-6.805 7.634-11.62 14.61-11.62h82.485c6.976 0 13.031 4.815 14.61 11.619l21.965 94.605 2.34 53.147 22.34 53.147 24.646 106.154 5.194 65.442z" fill="#e9bc3e"/><path d="m256 456.878h159.231l-26.894-72.763-5.194-65.442-24.646-106.154-22.34-53.147-2.34-53.147-21.965-94.605c-1.579-6.805-7.634-11.62-14.61-11.62h-41.242z" fill="#e58f22"/></g><g><g><path d="m104.178 424.967h303.644l-24.679-106.295h-254.286z" fill="#f1f1fa"/><path d="m256 424.967h151.822l-24.679-106.295h-127.143z" fill="#ded7f9"/></g><g><path d="m153.503 212.519h204.994l-24.679-106.295h-155.636z" fill="#f1f1fa"/><path d="m256 212.519h102.497l-24.679-106.295h-77.818z" fill="#ded7f9"/></g></g></g><g><path d="m512 512h-512v-72.033c0-8.284 6.716-15 15-15h482c8.284 0 15 6.716 15 15z" fill="#f3d652"/><path d="m497 424.967h-241v87.033h256v-72.012c0-8.296-6.716-15.021-15-15.021z" fill="#e9bc3e"/></g></g></svg>