<svg id="Capa_1" enable-background="new 0 0 512 512" height="512" viewBox="0 0 512 512" width="512" xmlns="http://www.w3.org/2000/svg"><g><g><path d="m100.702 131.371c-3.839 0-7.678-1.464-10.606-4.393l-24.404-24.404c-5.858-5.858-5.858-15.355-.001-21.213 5.858-5.858 15.356-5.858 21.213 0l24.404 24.404c5.858 5.858 5.858 15.355.001 21.213-2.929 2.929-6.768 4.393-10.607 4.393z" fill="#ded7f9"/><path d="m411.298 131.371c-3.839 0-7.678-1.464-10.606-4.394-5.858-5.858-5.858-15.355 0-21.213l24.404-24.404c5.858-5.857 15.356-5.857 21.213 0 5.858 5.858 5.858 15.355 0 21.213l-24.404 24.404c-2.93 2.929-6.769 4.394-10.607 4.394z" fill="#c7bdb8"/><g><path d="m256 64.512c-8.284 0-15-6.716-15-15v-34.512c0-8.284 6.716-15 15-15s15 6.716 15 15v34.512c0 8.284-6.716 15-15 15z" fill="#ded7f9"/><path d="m256 0v64.512c8.284 0 15-6.716 15-15v-34.512c0-8.284-6.716-15-15-15z" fill="#c7bdb8"/></g></g><g><g><g><path d="m423.022 500.353h-334.044v-242.563c0-85.885 69.623-155.508 155.508-155.508h23.028c85.885 0 155.508 69.623 155.508 155.508z" fill="#e06c6c"/><path d="m267.514 102.283h-11.514v398.07h167.022v-242.563c0-85.884-69.623-155.507-155.508-155.507z" fill="#c63c50"/></g><g><g><path d="m256 487.285c-8.284 0-15-6.716-15-15v-198.285c0-8.284 6.716-15 15-15s15 6.716 15 15v198.285c0 8.284-6.716 15-15 15z" fill="#ded7f9"/><path d="m256 259v228.285c8.284 0 15-6.716 15-15v-198.285c0-8.284-6.716-15-15-15z" fill="#c7bdb8"/></g><g><ellipse cx="256" cy="252.25" fill="#f1f1fa" rx="44.001" ry="44.001" transform="matrix(.132 -.991 .991 .132 -27.789 472.771)"/><path d="m256 208.249v88.001c24.301 0 44.001-19.7 44.001-44.001 0-24.3-19.7-44-44.001-44z" fill="#ded7f9"/></g></g></g><g><path d="m448.936 512h-385.872c-8.284 0-15-6.716-15-15v-34.296c0-8.284 6.716-15 15-15h385.871c8.284 0 15 6.716 15 15v34.296c.001 8.284-6.715 15-14.999 15z" fill="#f1f1fa"/><path d="m448.936 447.704h-192.936v64.296h192.936c8.284 0 15-6.716 15-15v-34.296c0-8.284-6.716-15-15-15z" fill="#ded7f9"/></g></g></g></svg>