<svg id="Capa_1" enable-background="new 0 0 511.565 511.565" height="512" viewBox="0 0 511.565 511.565" width="512" xmlns="http://www.w3.org/2000/svg"><g><g><path d="m365.359 196.292c-8.284 0-15-6.716-15-15v-166.292c0-8.284 6.716-15 15-15s15 6.716 15 15v166.292c0 8.284-6.716 15-15 15z" fill="#c3bfd9"/><path d="m373.421 30h-16.126c-8.284 0-15-6.716-15-15s6.716-15 15-15h16.126c8.284 0 15 6.716 15 15s-6.716 15-15 15z" fill="#c63c50"/></g><g><g><path d="m228.241 176.292c-8.284 0-15-6.716-15-15v-24.885c0-8.284 6.716-15 15-15s15 6.716 15 15v24.885c0 8.284-6.716 15-15 15z" fill="#c63c50"/><path d="m168.241 176.292c-8.284 0-15-6.716-15-15v-24.885c0-8.284 6.716-15 15-15s15 6.716 15 15v24.885c0 8.284-6.716 15-15 15z" fill="#e06c6c"/></g><g><g><g><path d="m307.363 511.565h-111.128c-40.367 0-73.091-32.724-73.091-73.091v-269.14c0-8.284 6.716-15 15-15h227.31c8.284 0 15 6.716 15 15v269.14c0 40.367-32.724 73.091-73.091 73.091z" fill="#667197"/><path d="m365.454 154.334h-113.655v357.231h55.564c40.367 0 73.091-32.724 73.091-73.091v-269.14c0-8.284-6.716-15-15-15z" fill="#4d5788"/></g><g><path d="m297.179 293.396h-90.76c-8.284 0-15-6.716-15-15v-40.553c0-8.284 6.716-15 15-15h90.76c8.284 0 15 6.716 15 15v40.553c0 8.284-6.716 15-15 15z" fill="#f1f1fa"/><path d="m297.179 222.843h-45.38v70.553h45.38c8.284 0 15-6.716 15-15v-40.553c0-8.284-6.716-15-15-15z" fill="#ded7f9"/></g></g><g><g><path d="m297.155 439.037h-18.65c-8.284 0-15-6.716-15-15s6.716-15 15-15h18.65c8.284 0 15 6.716 15 15s-6.716 15-15 15z" fill="#ded7f9"/><path d="m217.155 439.037h-18.65c-8.284 0-15-6.716-15-15s6.716-15 15-15h18.65c8.284 0 15 6.716 15 15s-6.716 15-15 15z" fill="#f1f1fa"/></g><g><path d="m297.155 379.037h-18.65c-8.284 0-15-6.716-15-15s6.716-15 15-15h18.65c8.284 0 15 6.716 15 15s-6.716 15-15 15z" fill="#ded7f9"/><path d="m217.155 379.037h-18.65c-8.284 0-15-6.716-15-15s6.716-15 15-15h18.65c8.284 0 15 6.716 15 15s-6.716 15-15 15z" fill="#f1f1fa"/></g></g></g></g></g></svg>