<svg id="Capa_1" enable-background="new 0 0 512 512" height="512" viewBox="0 0 512 512" width="512" xmlns="http://www.w3.org/2000/svg"><g><g><g><path d="m428.01 372.933-43.154-43.103c6.772-16.333 10.522-34.202 10.522-52.905h-.001v-179.071c.001-54.043-43.861-97.854-97.969-97.854h-82.903c-54.107 0-97.97 43.811-97.97 97.854v179.07c0 18.703 3.75 36.572 10.522 52.905l-43.068 43.017 19.233 34.696 36.05 20.523 37.055-37.011c22.615 15.818 50.084 25.128 79.629 25.128 29.545 0 57.015-9.31 79.629-25.128l37.141 37.097 38.543-18.864z" fill="#667197"/><path d="m384.856 329.83c6.772-16.333 10.522-34.202 10.522-52.905h-.001v-179.071c.001-54.043-43.861-97.854-97.969-97.854h-41.408v416.181c29.529-.009 56.983-9.317 79.586-25.127l37.141 37.097 38.543-18.864 16.741-36.355z" fill="#4d5788"/></g><g><g><path d="m256 350.96c-24.787 0-48.362-9.362-66.383-26.361l-78.726-74.263c-14.959-14.111-24.88-31.914-28.689-51.483-3.529-18.126-1.72-36.938 5.231-54.401 6.951-17.462 18.567-32.379 33.593-43.137 16.223-11.615 35.673-17.754 56.249-17.754h157.452c20.576 0 40.026 6.139 56.249 17.754 15.026 10.757 26.642 25.674 33.593 43.137s8.76 36.275 5.231 54.401c-3.81 19.57-13.731 37.373-28.689 51.483l-78.726 74.263c-18.023 16.999-41.598 26.361-66.385 26.361z" fill="#f3d652"/><path d="m424.568 144.452c-6.951-17.462-18.567-32.379-33.593-43.137-16.223-11.615-35.673-17.754-56.249-17.754h-78.726v267.399c24.787 0 48.362-9.362 66.383-26.361l78.726-74.263c14.959-14.111 24.88-31.914 28.689-51.483 3.529-18.126 1.721-36.938-5.23-54.401z" fill="#e9bc3e"/></g><g><path d="m256 320.926c-17.077 0-33.321-6.451-45.737-18.163l-78.726-74.262c-10.361-9.775-17.215-22.01-19.818-35.382-2.428-12.47-1.163-25.462 3.656-37.572 4.82-12.108 12.832-22.42 23.169-29.82 11.085-7.937 24.478-12.132 38.731-12.132h157.453c14.252 0 27.645 4.195 38.73 12.131 10.337 7.401 18.349 17.714 23.169 29.821 4.82 12.11 6.084 25.101 3.656 37.572-2.604 13.372-9.457 25.607-19.819 35.382l-78.726 74.262c-12.418 11.712-28.661 18.163-45.738 18.163z" fill="#eff5ff"/><path d="m396.625 155.548c-4.82-12.108-12.832-22.42-23.169-29.821-11.085-7.936-24.478-12.131-38.73-12.131h-78.726v207.33c17.077 0 33.321-6.451 45.737-18.163l78.726-74.262c10.362-9.775 17.215-22.01 19.819-35.382 2.427-12.47 1.163-25.461-3.657-37.571z" fill="#dae7fd"/></g></g></g><g><path d="m41.373 349.111-36.641 36.598c-6.309 6.301-6.309 16.518 0 22.819l98.861 98.744c6.309 6.301 16.537 6.301 22.846 0l36.642-36.598c6.309-6.301 6.309-16.518 0-22.819l-98.861-98.745c-6.309-6.301-16.538-6.301-22.847.001z" fill="#f3d652"/><path d="m507.268 385.709-36.641-36.598c-6.309-6.302-16.539-6.301-22.847.001l-98.856 98.752c-6.308 6.302-6.308 16.518.001 22.819l36.635 36.592c6.309 6.301 16.538 6.301 22.846 0l98.862-98.746c6.309-6.302 6.309-16.519 0-22.82z" fill="#e9bc3e"/></g></g></svg>