<svg id="Capa_1" enable-background="new 0 0 512 512" height="512" viewBox="0 0 512 512" width="512" xmlns="http://www.w3.org/2000/svg"><g><g><g fill="#bfdafe"><path d="m497 417.935c-3.839 0-7.678-1.464-10.607-4.393l-13.839-13.84c-5.857-5.858-5.857-15.355.001-21.213 5.858-5.857 15.356-5.859 21.213 0l13.839 13.84c5.858 5.858 5.858 15.355-.001 21.213-2.928 2.929-6.768 4.393-10.606 4.393z"/><path d="m440.432 361.366c-3.839 0-7.677-1.464-10.606-4.393l-13.839-13.839c-5.858-5.857-5.858-15.354 0-21.213 5.858-5.857 15.355-5.859 21.213 0l13.839 13.839c5.858 5.857 5.858 15.355.001 21.213-2.931 2.928-6.769 4.393-10.608 4.393z"/><path d="m383.863 304.798c-3.839 0-7.677-1.464-10.607-4.394l-13.839-13.839c-5.858-5.857-5.858-15.354-.001-21.213 5.858-5.857 15.355-5.859 21.213 0l13.839 13.839c5.858 5.857 5.858 15.354 0 21.213-2.928 2.929-6.766 4.394-10.605 4.394z"/></g><g fill="#dae7fd"><path d="m15 417.935c-3.839 0-7.677-1.464-10.606-4.393-5.858-5.857-5.858-15.354 0-21.213l13.839-13.84c5.858-5.857 15.355-5.859 21.213 0 5.858 5.857 5.858 15.354 0 21.213l-13.839 13.84c-2.929 2.929-6.768 4.393-10.607 4.393z"/><path d="m71.568 361.366c-3.839 0-7.678-1.464-10.607-4.393-5.857-5.858-5.857-15.355 0-21.213l13.839-13.839c5.858-5.858 15.356-5.858 21.213 0s5.857 15.355 0 21.213l-13.839 13.839c-2.928 2.928-6.767 4.393-10.606 4.393z"/><path d="m128.137 304.798c-3.839 0-7.678-1.464-10.607-4.394-5.857-5.858-5.857-15.355 0-21.213l13.839-13.839c5.858-5.858 15.356-5.858 21.213 0s5.857 15.355 0 21.213l-13.839 13.839c-2.928 2.929-6.767 4.394-10.606 4.394z"/></g><g fill="#bfdafe"><path d="m406.039 479.713c-5.287 0-10.412-2.8-13.147-7.756l-9.456-17.136c-4.002-7.253-1.367-16.378 5.886-20.38 7.253-4.003 16.377-1.368 20.38 5.886l9.456 17.136c4.002 7.253 1.367 16.378-5.886 20.38-2.297 1.267-4.783 1.87-7.233 1.87z"/><path d="m367.389 409.669c-5.287 0-10.413-2.801-13.147-7.757l-9.455-17.137c-4.002-7.253-1.367-16.378 5.887-20.38 7.254-4.003 16.378-1.366 20.38 5.888l9.455 17.137c4.002 7.253 1.367 16.378-5.887 20.38-2.297 1.267-4.783 1.869-7.233 1.869z"/><path d="m328.74 339.624c-5.287 0-10.412-2.8-13.147-7.756l-9.456-17.136c-4.002-7.253-1.367-16.378 5.886-20.38 7.254-4.003 16.378-1.368 20.38 5.886l9.456 17.136c4.002 7.253 1.367 16.378-5.886 20.38-2.297 1.268-4.783 1.87-7.233 1.87z"/></g><g fill="#dae7fd"><path d="m109.257 479.713c-2.451 0-4.936-.602-7.233-1.87-7.253-4.002-9.889-13.127-5.886-20.38l9.456-17.136c4.002-7.253 13.124-9.892 20.38-5.886 7.253 4.002 9.889 13.127 5.886 20.38l-9.456 17.136c-2.735 4.955-7.861 7.756-13.147 7.756z"/><path d="m147.907 409.669c-2.451 0-4.935-.602-7.233-1.869-7.253-4.002-9.889-13.127-5.887-20.38l9.455-17.137c4.001-7.254 13.126-9.891 20.38-5.888 7.253 4.002 9.889 13.127 5.887 20.38l-9.455 17.137c-2.734 4.956-7.861 7.757-13.147 7.757z"/><path d="m186.556 339.624c-2.451 0-4.936-.602-7.233-1.87-7.253-4.002-9.889-13.127-5.886-20.38l9.456-17.136c4.002-7.253 13.126-9.892 20.38-5.886 7.253 4.002 9.889 13.127 5.886 20.38l-9.456 17.136c-2.735 4.955-7.861 7.756-13.147 7.756z"/></g><g><g><path d="m256 512c-8.284 0-15-6.716-15-15v-19.571c0-8.284 6.716-15 15-15s15 6.716 15 15v19.571c0 8.284-6.716 15-15 15z" fill="#dae7fd"/><path d="m256 462.429v49.571c8.284 0 15-6.716 15-15v-19.571c0-8.284-6.716-15-15-15z" fill="#bfdafe"/></g><g><path d="m256 432c-8.284 0-15-6.716-15-15v-19.571c0-8.284 6.716-15 15-15s15 6.716 15 15v19.571c0 8.284-6.716 15-15 15z" fill="#dae7fd"/><path d="m256 382.429v49.571c8.284 0 15-6.716 15-15v-19.571c0-8.284-6.716-15-15-15z" fill="#bfdafe"/></g><g><path d="m256 352c-8.284 0-15-6.716-15-15v-19.571c0-8.284 6.716-15 15-15s15 6.716 15 15v19.571c0 8.284-6.716 15-15 15z" fill="#dae7fd"/><path d="m256 302.429v49.571c8.284 0 15-6.716 15-15v-19.571c0-8.284-6.716-15-15-15z" fill="#bfdafe"/></g></g></g><g><g><g><path d="m206.483 52.579h99.034v129.195h-99.034z" fill="#4d5788" transform="matrix(-1 0 0 -1 512 234.352)"/><path d="m256 52.579h49.517v129.195h-49.517z" fill="#313a6b"/></g><g><path d="m256 183.714c-8.284 0-15-6.716-15-15v-10.042c0-8.284 6.716-15 15-15s15 6.716 15 15v10.042c0 8.284-6.716 15-15 15z" fill="#e06c6c"/><path d="m256 143.672v40.042c8.284 0 15-6.716 15-15v-10.042c0-8.284-6.716-15-15-15z" fill="#c63c50"/></g></g><g><path d="m346.575 68.682h-181.15c-33.15 0-60.024-26.874-60.024-60.024v-8.658h301.199v8.657c-.001 33.151-26.874 60.025-60.025 60.025z" fill="#667197"/><path d="m256 0v68.681h90.575c33.15 0 60.024-26.874 60.024-60.024v-8.657z" fill="#4d5788"/></g><g><path d="m344.267 238h-176.534c-6.163 0-11.16-4.996-11.16-11.16v-17.553c0-22.369 18.133-40.502 40.502-40.502h117.85c22.368 0 40.502 18.133 40.502 40.502v17.553c0 6.164-4.996 11.16-11.16 11.16z" fill="#667197"/><path d="m314.925 168.785h-58.925v69.215h88.267c6.163 0 11.16-4.996 11.16-11.16v-17.554c0-22.368-18.133-40.501-40.502-40.501z" fill="#4d5788"/></g></g></g></svg>