<svg id="Capa_1" enable-background="new 0 0 512 512" height="512" viewBox="0 0 512 512" width="512" xmlns="http://www.w3.org/2000/svg"><g><g><path d="m258.139 379.511c-50.689 0-88.132-41.661-82.392-89.285 5.921-49.131 82.788-98.818 81.15-148.667-.221-6.732 7.718-10.495 12.818-6.095 22.182 19.139 54.919 62.815 26.702 141.338 0 0 13.249-1.465 21.925-12.006 3.944-4.792 11.659-3.134 13.407 2.822 15.2 51.788-9.807 111.893-73.61 111.893z" fill="#e9bc3e"/><path d="m331.748 267.618c-1.748-5.956-9.462-7.614-13.407-2.822-8.676 10.541-21.925 12.006-21.925 12.006 28.217-78.523-4.52-122.199-26.702-141.338-5.1-4.4-13.039-.637-12.817 6.095.143 4.355-.325 8.709-1.281 13.062v224.853c.837.023 1.678.036 2.522.036 63.804.001 88.811-60.104 73.61-111.892z" fill="#e58f22"/></g><g><path d="m496.99 240.99h-22.887c-3.553-52.744-25.783-101.843-63.516-139.576s-86.833-59.963-139.577-63.516v-22.888c0-8.29-6.72-15.01-15.01-15.01s-15.01 6.72-15.01 15.01v22.888c-52.744 3.553-101.844 25.783-139.577 63.516s-59.963 86.832-63.516 139.576h-22.887c-8.29 0-15.01 6.72-15.01 15.01s6.72 15.01 15.01 15.01h22.887c3.553 52.744 25.783 101.843 63.516 139.576s86.833 59.963 139.577 63.516v22.888c0 8.29 6.72 15.01 15.01 15.01s15.01-6.72 15.01-15.01v-22.888c52.744-3.553 101.843-25.783 139.577-63.516s59.963-86.832 63.516-139.576h22.887c8.29 0 15.01-6.72 15.01-15.01s-6.72-15.01-15.01-15.01zm-225.98 203.01v-21.774c0-8.29-6.72-15.01-15.01-15.01s-15.01 6.72-15.01 15.01v21.774c-92.05-7.283-165.709-80.942-172.991-172.99h21.774c8.29 0 15.01-6.72 15.01-15.01s-6.72-15.01-15.01-15.01h-21.774c7.282-92.049 80.941-165.708 172.991-172.991v21.774c0 8.29 6.72 15.01 15.01 15.01s15.01-6.72 15.01-15.01v-21.774c92.049 7.283 165.709 80.942 172.991 172.991h-21.774c-8.29 0-15.01 6.72-15.01 15.01s6.72 15.01 15.01 15.01h21.774c-7.282 92.049-80.942 165.708-172.991 172.99z" fill="#667197"/><path d="m496.99 240.99h-22.887c-3.553-52.744-25.783-101.843-63.516-139.576s-86.833-59.963-139.577-63.516v-22.888c0-8.29-6.72-15.01-15.01-15.01-.13 0-.255.016-.384.019v104.745c.129.003.254.019.384.019 8.29 0 15.01-6.72 15.01-15.01v-21.774c92.049 7.283 165.709 80.942 172.991 172.991h-21.774c-8.29 0-15.01 6.72-15.01 15.01s6.72 15.01 15.01 15.01h21.774c-7.282 92.049-80.942 165.708-172.991 172.99v-21.774c0-8.29-6.72-15.01-15.01-15.01-.13 0-.255.016-.384.019v104.745c.129.004.254.02.384.02 8.29 0 15.01-6.72 15.01-15.01v-22.888c52.744-3.553 101.843-25.783 139.577-63.516s59.963-86.832 63.516-139.576h22.887c8.29 0 15.01-6.72 15.01-15.01s-6.72-15.01-15.01-15.01z" fill="#4d5788"/></g></g></svg>