<svg id="Capa_1" enable-background="new 0 0 512 512" height="512" viewBox="0 0 512 512" width="512" xmlns="http://www.w3.org/2000/svg"><g><g><path d="m60.236 512c-8.284 0-15-6.71-15-14.987v-82.784c0-8.277 6.716-14.987 15-14.987s15 6.71 15 14.987v82.784c0 8.277-6.715 14.987-15 14.987z" fill="#ded7f9"/><path d="m451.764 512c-8.284 0-15-6.71-15-14.987v-82.784c0-8.277 6.716-14.987 15-14.987s15 6.71 15 14.987v82.784c0 8.277-6.716 14.987-15 14.987z" fill="#c7bdb8"/></g><g><g><g><g><path d="m306.18 53.815v-38.828c0-8.277-6.716-14.987-15-14.987h-70.36c-8.284 0-15 6.71-15 14.987v38.828c-90.989 22.448-158.462 104.532-158.462 202.374v125.667h417.285v-125.667c-.001-97.842-67.474-179.926-158.463-202.374z" fill="#e06c6c"/><path d="m306.18 53.815v-38.828c0-8.277-6.716-14.987-15-14.987h-35.18v381.856h208.642v-125.667c0-97.842-67.473-179.926-158.462-202.374z" fill="#c63c50"/></g><g><g fill="#942a3a"><path d="m391 408.719c-8.284 0-15-6.71-15-14.987v-127.628c0-8.277 6.716-14.987 15-14.987s15 6.71 15 14.987v127.628c0 8.277-6.716 14.987-15 14.987z"/><path d="m331 408.719c-8.284 0-15-6.71-15-14.987v-84.008c0-8.277 6.716-14.987 15-14.987s15 6.71 15 14.987v84.008c0 8.277-6.716 14.987-15 14.987z"/></g><g fill="#c63c50"><path d="m180 408.719c-8.284 0-15-6.71-15-14.987v-84.008c0-8.277 6.716-14.987 15-14.987s15 6.71 15 14.987v84.008c0 8.277-6.716 14.987-15 14.987z"/><path d="m120 408.719c-8.284 0-15-6.71-15-14.987v-127.628c0-8.277 6.716-14.987 15-14.987s15 6.71 15 14.987v127.628c0 8.277-6.716 14.987-15 14.987z"/></g></g></g><g><path d="m288.529 127.828h-64.016c0 18.021-14.622 32.63-32.659 32.63v40.466c0 40.629 24.657 75.504 59.835 90.504 2.747 1.171 5.873 1.171 8.62 0 35.179-14.999 59.835-49.875 59.835-90.504v-41.508c-17.46 0-31.615-14.142-31.615-31.588z" fill="#f3d652"/><path d="m288.529 127.828h-32.529v164.478c1.468 0 2.936-.293 4.31-.878 35.179-14.999 59.835-49.875 59.835-90.504v-41.508c-17.461 0-31.616-14.142-31.616-31.588z" fill="#e9bc3e"/></g></g><g><path d="m497 424.999h-482c-8.284 0-15-6.716-15-15v-38.026c0-8.284 6.716-15 15-15h482c8.284 0 15 6.716 15 15v38.026c0 8.284-6.716 15-15 15z" fill="#942a3a"/><path d="m497 356.973h-241v68.025h241c8.284 0 15-6.71 15-14.987v-38.051c0-8.277-6.716-14.987-15-14.987z" fill="#821f31"/></g></g></g></svg>