<?xml version="1.0" encoding="utf-8"?>
<!-- Generator: Adobe Illustrator 25.2.1, SVG Export Plug-In . SVG Version: 6.00 Build 0)  -->
<svg version="1.1" id="Capa_1" xmlns="http://www.w3.org/2000/svg" xmlns:xlink="http://www.w3.org/1999/xlink" x="0px" y="0px"
	 viewBox="0 0 512 512" style="enable-background:new 0 0 512 512;" xml:space="preserve">
<style type="text/css">
	.st0{fill:#77716F;}
	.st1{fill:#58A3FE;}
	.st2{fill:#004FAC;}
	.st3{fill:#1B46A8;}
	.st4{fill:#4B87DD;}
	.st5{fill:#F3D652;}
	.st6{fill:#E9BC3E;}
	.st7{fill:#0B2A7F;}
</style>
<path class="st0" d="M60.2,512c-8.3,0-15-6.7-15-15v-82.8c0-8.3,6.7-15,15-15s15,6.7,15,15V497C75.2,505.3,68.5,512,60.2,512z"/>
<path class="st0" d="M451.8,512c-8.3,0-15-6.7-15-15v-82.8c0-8.3,6.7-15,15-15s15,6.7,15,15V497C466.8,505.3,460,512,451.8,512z"/>
<path class="st1" d="M306.2,53.8V15c0-8.3-6.7-15-15-15h-70.4c-8.3,0-15,6.7-15,15v38.8c-91,22.4-158.5,104.5-158.5,202.4v125.7
	h417.3V256.2C464.6,158.3,397.2,76.3,306.2,53.8z"/>
<path class="st2" d="M306.2,53.8V15c0-8.3-6.7-15-15-15H256v381.9h208.6V256.2C464.6,158.3,397.2,76.3,306.2,53.8z"/>
<g>
	<g>
		<path class="st3" d="M391,408.7c-8.3,0-15-6.7-15-15V266.1c0-8.3,6.7-15,15-15s15,6.7,15,15v127.6C406,402,399.3,408.7,391,408.7z
			"/>
		<path class="st3" d="M331,408.7c-8.3,0-15-6.7-15-15v-84c0-8.3,6.7-15,15-15s15,6.7,15,15v84C346,402,339.3,408.7,331,408.7z"/>
	</g>
	<g>
		<path class="st4" d="M180,408.7c-8.3,0-15-6.7-15-15v-84c0-8.3,6.7-15,15-15s15,6.7,15,15v84C195,402,188.3,408.7,180,408.7z"/>
		<path class="st4" d="M120,408.7c-8.3,0-15-6.7-15-15V266.1c0-8.3,6.7-15,15-15s15,6.7,15,15v127.6C135,402,128.3,408.7,120,408.7z
			"/>
	</g>
</g>
<path class="st5" d="M288.5,127.8h-64c0,18-14.6,32.6-32.7,32.6v40.5c0,40.6,24.7,75.5,59.8,90.5c2.7,1.2,5.9,1.2,8.6,0
	c35.2-15,59.8-49.9,59.8-90.5v-41.5C302.7,159.4,288.5,145.3,288.5,127.8L288.5,127.8z"/>
<path class="st6" d="M288.5,127.8H256v164.5c1.5,0,2.9-0.3,4.3-0.9c35.2-15,59.8-49.9,59.8-90.5v-41.5
	C302.7,159.4,288.5,145.3,288.5,127.8L288.5,127.8z"/>
<path class="st2" d="M497,425H15c-8.3,0-15-6.7-15-15v-38c0-8.3,6.7-15,15-15h482c8.3,0,15,6.7,15,15v38
	C512,418.3,505.3,425,497,425z"/>
<path class="st7" d="M497,357H256v68h241c8.3,0,15-6.7,15-15V372C512,363.7,505.3,357,497,357z"/>
<g id="E1zdPQ_1_">
	
		<image style="overflow:visible;" width="512" height="512" id="E1zdPQ" xlink:href="3B60F8E646578A38.jpg"  transform="matrix(1 0 0 1 85 -550)">
	</image>
</g>
</svg>
