<svg id="Capa_1" enable-background="new 0 0 512 512" height="512" viewBox="0 0 512 512" width="512" xmlns="http://www.w3.org/2000/svg"><g><g><path d="m256 492.165c-63.082 0-122.389-24.566-166.994-69.171-44.606-44.606-69.171-103.912-69.171-166.994s24.565-122.388 69.171-166.994c44.605-44.606 103.912-69.171 166.994-69.171s122.388 24.565 166.994 69.171 69.171 103.912 69.171 166.994-24.565 122.388-69.171 166.994-103.912 69.171-166.994 69.171z" fill="#f1f1fa"/><path d="m422.994 89.006c-44.606-44.606-103.912-69.171-166.994-69.171v472.331c63.082 0 122.388-24.566 166.994-69.171 44.606-44.607 69.171-103.913 69.171-166.995s-24.565-122.388-69.171-166.994z" fill="#ded7f9"/></g><g><path d="m258.915 401.668c-58.562 0-101.821-48.132-95.189-103.153 6.841-56.763 95.647-114.167 93.755-171.758-.256-7.778 8.916-12.125 14.808-7.042 25.628 22.112 63.45 72.571 30.849 163.291 0 0 15.306-1.692 25.33-13.87 4.557-5.537 13.47-3.62 15.489 3.26 17.562 59.831-11.329 129.272-85.042 129.272z" fill="#edbe2c"/><path d="m343.957 272.396c-2.02-6.881-10.932-8.797-15.489-3.26-10.024 12.178-25.33 13.871-25.33 13.871 32.6-90.719-5.222-141.179-30.85-163.291-5.892-5.084-15.064-.736-14.808 7.042.165 5.032-.375 10.123-1.479 15.151v259.718c.967.027 1.938.042 2.914.042 73.713-.001 102.604-69.442 85.042-129.273z" fill="#e58f22"/></g><g><path d="m437.02 74.981c-48.353-48.352-112.64-74.981-181.02-74.981s-132.668 26.629-181.02 74.981c-48.351 48.352-74.98 112.639-74.98 181.019s26.629 132.667 74.98 181.02c48.352 48.351 112.64 74.98 181.02 74.98s132.667-26.629 181.02-74.98c48.351-48.353 74.98-112.64 74.98-181.02s-26.629-132.667-74.98-181.019zm-340.826 21.213c42.686-42.686 99.439-66.194 159.806-66.194 55.339 0 107.633 19.768 148.845 55.943l-318.903 318.901c-36.174-41.212-55.942-93.505-55.942-148.844 0-60.367 23.508-117.12 66.194-159.806zm319.612 319.612c-42.686 42.686-99.439 66.194-159.806 66.194-55.339 0-107.633-19.768-148.845-55.943l318.902-318.902c36.175 41.212 55.943 93.506 55.943 148.845 0 60.367-23.508 117.12-66.194 159.806z" fill="#e06c6c"/><path d="m437.02 74.981c-48.353-48.352-112.64-74.981-181.02-74.981v30c55.339 0 107.633 19.768 148.845 55.943l-148.845 148.844v42.426l170.057-170.057c36.175 41.211 55.943 93.505 55.943 148.844 0 60.367-23.508 117.12-66.194 159.806s-99.439 66.194-159.806 66.194v30c68.38 0 132.667-26.629 181.02-74.98 48.351-48.353 74.98-112.64 74.98-181.02s-26.629-132.667-74.98-181.019z" fill="#c63c50"/></g></g></svg>