<svg id="Capa_1" enable-background="new 0 0 512 512" height="512" viewBox="0 0 512 512" width="512" xmlns="http://www.w3.org/2000/svg"><g><g><path d="m0 415.999v57.847c0 21.072 17.055 38.154 38.093 38.154h23.153c8.285 0 15.001-6.738 15.001-15.051v-16.669h47.241v16.669c0 8.312 6.716 15.051 15.001 15.051h27.123c8.285 0 15.001-6.738 15.001-15.051v-16.669h47.24v16.669c0 8.312 6.716 15.051 15.002 15.051h27.123c8.285 0 15.001-6.738 15.001-15.051v-16.669h47.24v16.669c0 8.312 6.716 15.051 15.001 15.051h27.123c8.285 0 15.001-6.738 15.001-15.051v-16.669h47.241v16.669c0 8.312 6.716 15.051 15.001 15.051h22.265c21.038 0 38.093-17.082 38.093-38.155v-57.847l-308.291-20.068z" fill="#ded7f9"/><path d="m203.656 395.931v84.349h24.199v16.669c0 8.312 6.716 15.051 15.001 15.051h27.123c8.285 0 15.001-6.738 15.001-15.051v-16.669h47.241v16.669c0 8.312 6.716 15.051 15.001 15.051h27.123c8.285 0 15.001-6.738 15.001-15.051v-16.669h47.241v16.669c0 8.312 6.716 15.051 15.001 15.051h22.265c21.038 0 38.093-17.082 38.093-38.155v-57.847z" fill="#c3bfd9"/></g><g><g><path d="m0 279.335v-209.263c0-8.312 6.716-15.051 15.002-15.051h188.654v224.314z" fill="#4d5788"/><g><path d="m0 189.744v175.527 51.035l511.947-.151.053-63.701c.039-46.239-37.312-83.744-83.4-83.744h-69.272c-25.293 0-48.398-9.398-66.036-24.903l-21.348-15.053-2.008-15.051c-5.25-10.346-8.768-21.724-10.171-33.751l-11.301-15.052 10.616-15.051v-134.769c0-9.348-8.424-16.54-17.583-14.829-44.524 8.319-78.182 47.639-77.879 94.789.338 52.649-42.987 95.146-95.465 95.146h-68.153" fill="#667197"/><path d="m428.6 268.711h-69.271c-25.293 0-48.398-9.398-66.036-24.903l-21.348-15.053-2.008-15.051c-5.25-10.346-8.768-21.724-10.171-33.751l-11.301-15.052 10.616-15.051v-134.768c0-9.348-8.424-16.54-17.584-14.829-13.908 2.598-26.757 8.222-37.841 16.165v399.828l308.291-.091.053-63.701c.039-46.239-37.312-83.743-83.4-83.743z" fill="#4d5788"/></g></g><g fill="#f3d652"><path d="m224.599 179.952h35.173c-.452-3.877-.692-7.82-.692-11.819v-18.283h-34.481c-8.285 0-15.001 6.739-15.001 15.051s6.716 15.051 15.001 15.051z"/><path d="m224.599 243.804h68.697c-9.569-8.412-17.53-18.62-23.357-30.102h-45.34c-8.285 0-15.001 6.738-15.001 15.051-.001 8.312 6.716 15.051 15.001 15.051z"/></g></g></g></svg>