<svg id="Capa_1" enable-background="new 0 0 512 512" height="512" viewBox="0 0 512 512" width="512" xmlns="http://www.w3.org/2000/svg"><g><g><g><path d="m410.393 52.315c-2.807-2.816-4.543-6.707-4.543-11.003v-25.751c-.001-8.594 6.945-15.562 15.513-15.561 8.567 0 15.513 6.967 15.513 15.561v25.751c.001 8.594-6.945 15.561-15.513 15.561-4.284 0-8.162-1.742-10.97-4.558z" fill="#ded7f9"/><path d="m459.846 101.92c-2.807-2.816-4.543-6.706-4.543-11.003-.001-8.594 6.945-15.561 15.513-15.561h25.672c8.567 0 15.513 6.967 15.513 15.561.001 8.594-6.945 15.561-15.513 15.561h-25.672c-4.285-.001-8.163-1.742-10.97-4.558z" fill="#c3bfd9"/><g fill="#ded7f9"><path d="m167.666 279.604-18.154-18.21c-6.058-6.077-6.058-15.929 0-22.006s15.881-6.077 21.939 0l18.154 18.21c6.058 6.077 6.058 15.93 0 22.006-6.059 6.077-15.881 6.077-21.939 0z"/><path d="m209.192 237.951-18.154-18.21c-6.058-6.077-6.058-15.93 0-22.006 6.058-6.077 15.881-6.077 21.939 0l18.154 18.21c6.058 6.077 6.058 15.929 0 22.006-6.059 6.076-15.881 6.076-21.939 0z"/><path d="m250.717 196.298-18.154-18.21c-6.058-6.077-6.058-15.93 0-22.006 6.058-6.077 15.881-6.077 21.939 0l18.154 18.21c6.058 6.077 6.058 15.929 0 22.006-6.059 6.076-15.881 6.076-21.939 0z"/></g><path d="m251.409 363.605-18.153-18.209c-6.058-6.077-6.058-15.93 0-22.006 6.058-6.077 15.881-6.077 21.939 0l18.153 18.209c6.058 6.077 6.058 15.93 0 22.006-6.059 6.077-15.881 6.077-21.939 0z" fill="#c3bfd9"/><path d="m292.934 321.951-18.153-18.209c-6.058-6.077-6.058-15.93 0-22.006 6.058-6.077 15.88-6.077 21.939 0l18.153 18.209c6.058 6.077 6.058 15.93 0 22.006-6.058 6.077-15.881 6.077-21.939 0z" fill="#c3bfd9"/><path d="m334.459 280.298-18.153-18.209c-6.058-6.077-6.058-15.93 0-22.006 6.058-6.077 15.881-6.077 21.939 0l18.153 18.209c6.058 6.077 6.058 15.929 0 22.006s-15.881 6.077-21.939 0z" fill="#c3bfd9"/><path d="m291.961 154.926-18.154-18.21c-6.058-6.077-6.058-15.93 0-22.006 6.058-6.077 15.88-6.077 21.939 0l18.154 18.21c6.058 6.077 6.058 15.93 0 22.006-6.059 6.077-15.881 6.077-21.939 0z" fill="#ded7f9"/><path d="m333.487 113.272-18.154-18.21c-6.058-6.077-6.058-15.93 0-22.006 6.058-6.077 15.88-6.077 21.939 0l18.154 18.21c6.058 6.077 6.058 15.93 0 22.006-6.059 6.077-15.881 6.077-21.939 0z" fill="#ded7f9"/><path d="m375.012 71.619-18.154-18.21c-6.058-6.077-6.058-15.93 0-22.006 6.058-6.077 15.88-6.077 21.939 0l18.154 18.21c6.058 6.077 6.058 15.93 0 22.006-6.059 6.077-15.881 6.077-21.939 0z" fill="#ded7f9"/><path d="m375.704 238.927-18.153-18.209c-6.058-6.077-6.058-15.93 0-22.006 6.058-6.077 15.881-6.077 21.939 0l18.153 18.209c6.058 6.077 6.058 15.93 0 22.006-6.059 6.077-15.881 6.077-21.939 0z" fill="#c3bfd9"/><path d="m417.229 197.273-18.153-18.209c-6.058-6.077-6.058-15.93 0-22.006 6.058-6.077 15.881-6.077 21.939 0l18.153 18.209c6.058 6.077 6.058 15.93 0 22.006-6.058 6.077-15.88 6.077-21.939 0z" fill="#c3bfd9"/><path d="m458.754 155.62-18.153-18.209c-6.058-6.077-6.058-15.93 0-22.006 6.058-6.077 15.88-6.077 21.939 0l18.153 18.209c6.058 6.077 6.058 15.93 0 22.006-6.058 6.077-15.881 6.077-21.939 0z" fill="#c3bfd9"/><g><path d="m451.474 60.713c-6.058-6.077-6.058-15.93 0-22.006l18.154-18.21c6.058-6.077 15.881-6.077 21.939 0s6.058 15.929 0 22.006l-18.154 18.21c-6.059 6.077-15.881 6.077-21.939 0z" fill="#ded7f9"/><path d="m491.566 20.497-40.092 40.216c6.058 6.077 15.881 6.077 21.939 0l18.154-18.21c6.057-6.077 6.057-15.929-.001-22.006z" fill="#c3bfd9"/></g></g><g><path d="m186.645 396.414-69.84-70.056 283.069-283.942c16.922-16.974 44.357-16.974 61.278 0l8.56 8.587c16.923 16.975 16.923 44.497 0 61.472z" fill="#f1f1fa"/><path d="m469.714 51.006-4.281-4.295-313.708 314.675 34.92 35.028 283.069-283.941c16.921-16.974 16.921-44.494 0-61.467z" fill="#ded7f9"/></g></g><g><path d="m37.024 352.021-23.841-23.915c-17.577-17.632-17.577-46.321 0-63.953l2.185-2.191c17.577-17.632 46.179-17.632 63.757 0l23.841 23.915c6.058 6.077 6.058 15.93 0 22.006-6.058 6.077-15.881 6.077-21.939 0l-23.841-23.915c-5.48-5.497-14.399-5.497-19.879 0l-2.185 2.191c-5.48 5.497-5.48 14.443 0 19.94l23.841 23.915c6.058 6.077 6.058 15.93 0 22.006-6.058 6.078-15.881 6.078-21.939.001z" fill="#c63c50"/><g><g><path d="m102.765 277.769-73.349 73.575c-6.058 6.077-6.058 15.929 0 22.006l57.45 57.628-3.639 3.65c-17.645 17.7-17.645 46.397 0 64.097 17.645 17.7 46.254 17.7 63.9 0l87.957-88.228c6.058-6.077 6.058-15.929 0-22.006l-110.38-110.722c-6.059-6.077-15.881-6.077-21.939 0z" fill="#e06c6c"/><path d="m235.085 388.49-55.191-55.361-95.288 95.582 2.26 2.267-3.639 3.65c-17.646 17.7-17.646 46.397 0 64.097 17.645 17.7 46.254 17.7 63.9 0l87.957-88.228c6.059-6.077 6.059-15.93.001-22.007z" fill="#c63c50"/></g><g><path d="m189.952 343.219-41.848 41.977c-6.058 6.077-6.058 15.929 0 22.006s15.881 6.077 21.939 0l41.847-41.977z" fill="#821f31"/><path d="m104.519 341.475c-6.058 6.077-6.058 15.929 0 22.006s15.881 6.077 21.939 0l41.847-41.976-21.939-22.006z" fill="#c63c50"/></g></g></g></g></svg>