<svg id="Capa_1" enable-background="new 0 0 512 512" height="512" viewBox="0 0 512 512" width="512" xmlns="http://www.w3.org/2000/svg"><g><g><g><path d="m98.693 390.688v-18.685c0-23.528 19.142-42.67 42.67-42.67h229.273c23.528 0 42.67 19.142 42.67 42.67v18.685z" fill="#a56032"/><path d="m370.637 329.333h-114.637v61.354h157.307v-18.685c0-23.527-19.142-42.669-42.67-42.669z" fill="#854d29"/></g><g><g><g><path d="m441.83 502.005h-371.66c-8.284 0-15-5.607-15-12.522v-101.274c0-6.916 6.716-12.522 15-12.522h371.66c8.284 0 15 5.607 15 12.522v101.273c0 6.916-6.716 12.523-15 12.523z" fill="#a56032"/><path d="m441.83 375.687h-185.83v126.318h185.83c8.284 0 15-5.607 15-12.522v-101.274c0-6.915-6.716-12.522-15-12.522z" fill="#854d29"/></g><g><path d="m372.616 452.188h-233.232c-8.284 0-15-6.716-15-15s6.716-15 15-15h233.232c8.284 0 15 6.716 15 15s-6.716 15-15 15z" fill="#f3d652"/><path d="m372.616 422.188h-116.616v30h116.616c8.284 0 15-6.716 15-15 0-8.285-6.716-15-15-15z" fill="#e9bc3e"/></g></g><g><g><path d="m464.55 512h-417.1c-8.284 0-15-6.716-15-15s6.716-15 15-15h417.1c8.284 0 15 6.716 15 15s-6.715 15-15 15z" fill="#854d29"/><path d="m464.55 482h-208.55v30h208.55c8.284 0 15-6.716 15-15s-6.715-15-15-15z" fill="#633a1e"/></g><g><path d="m461.83 390.688h-411.66c-8.284 0-15-6.716-15-15s6.716-15 15-15h411.66c8.284 0 15 6.716 15 15s-6.716 15-15 15z" fill="#854d29"/><path d="m461.83 360.688h-205.83v30h205.83c8.284 0 15-6.716 15-15 0-8.285-6.716-15-15-15z" fill="#633a1e"/></g></g></g></g><g><path d="m259.38 329.544c-67.919 0-118.089-55.823-110.399-119.634 7.934-65.832 110.929-132.409 108.735-199.202-.296-9.02 10.341-14.062 17.174-8.167 29.723 25.645 73.588 84.167 35.779 189.381 0 0 17.752-1.963 29.377-16.087 5.285-6.421 15.622-4.199 17.964 3.781 20.368 69.392-13.14 149.928-98.63 149.928z" fill="#e9bc3e"/><path d="m358.01 179.617c-2.342-7.98-12.679-10.202-17.964-3.781-11.625 14.124-29.377 16.087-29.377 16.087 37.809-105.215-6.056-163.737-35.779-189.382-6.833-5.896-17.471-.854-17.174 8.167.192 5.836-.435 11.67-1.716 17.502v301.285c1.122.031 2.248.049 3.38.049 85.49 0 118.998-80.536 98.63-149.927z" fill="#e58f22"/></g></g></svg>