<svg id="Capa_1" enable-background="new 0 0 512 512" height="512" viewBox="0 0 512 512" width="512" xmlns="http://www.w3.org/2000/svg"><g><g><g><path d="m417.923 191.977c-8.284 0-15-6.718-15-15.004 0-81.037-65.909-146.965-146.923-146.965s-146.923 65.928-146.923 146.965c0 8.287-6.716 15.004-15 15.004s-15-6.718-15-15.004c0-97.583 79.368-176.973 176.923-176.973 97.556 0 176.923 79.39 176.923 176.973 0 8.287-6.716 15.004-15 15.004z" fill="#ded7f9"/><path d="m256 0v30.008c81.014 0 146.923 65.928 146.923 146.965 0 8.287 6.716 15.004 15 15.004s15-6.718 15-15.004c0-97.583-79.367-176.973-176.923-176.973z" fill="#c7bdb8"/></g><g><g><path d="m376.599 512h-238.361c-7.362 0-13.636-5.344-14.808-12.614l-44.353-274.932 176.923-20.006 176.923 21.435-41.492 273.354c-1.108 7.338-7.413 12.763-14.832 12.763z" fill="#667197"/><path d="m256 204.448v307.552h120.608c7.415 0 13.717-5.419 14.83-12.752l41.484-273.365z" fill="#4d5788"/></g><g><path d="m432.923 225.883h-353.846v-50.577c0-8.287 6.716-15.004 15-15.004h323.846c8.284 0 15 6.718 15 15.004z" fill="#4d5788"/><path d="m417.923 160.302h-161.923v65.581h176.923v-50.577c0-8.287-6.716-15.004-15-15.004z" fill="#313a6b"/></g></g></g><g><path d="m300.275 376.813c0 24.459-19.822 44.287-44.275 44.287-24.452 0-44.275-19.828-44.275-44.287 0-19.612 28.466-51.457 39.748-63.307 2.465-2.589 6.588-2.589 9.053 0 11.283 11.85 39.749 43.695 39.749 63.307z" fill="#bfdafe"/><path d="m260.527 313.505c-1.233-1.295-2.88-1.942-4.527-1.942v109.537c24.452 0 44.275-19.828 44.275-44.287 0-19.613-28.466-51.457-39.748-63.308z" fill="#86b1e5"/></g></g></svg>