<svg id="Capa_1" enable-background="new 0 0 512 512" height="512" viewBox="0 0 512 512" width="512" xmlns="http://www.w3.org/2000/svg"><g><g><g><g><path d="m488.92 512h-466.481v-261.51l56.168-119.655c1.175-2.503 3.043-4.593 5.369-6.006l164.289-99.786c4.293-2.607 9.623-2.607 13.915 0l164.29 99.787c2.3 1.397 4.153 3.456 5.331 5.923l55.717 116.749c.923 1.934 1.402 4.059 1.402 6.213z" fill="#e06c6c"/><path d="m487.518 247.503-55.718-116.75c-1.177-2.467-3.031-4.526-5.331-5.923l-164.288-99.785c-2.01-1.221-4.249-1.863-6.501-1.94v488.895h233.24v-258.284c0-2.154-.48-4.28-1.402-6.213z" fill="#c63c50"/></g><g><g><path d="m195.574 285.671c-2.762 0-5.009-2.313-5.009-5.156v-111.578c0-2.843 2.247-5.156 5.009-5.156h120.212c2.762 0 5.009 2.313 5.009 5.156v111.578c0 2.843-2.247 5.156-5.009 5.156z" fill="#dae7fd"/><path d="m315.785 163.782h-60.105v121.889h60.106c2.762 0 5.009-2.313 5.009-5.156v-111.578c-.001-2.842-2.248-5.155-5.01-5.155z" fill="#bfdafe"/></g><g><path d="m315.785 295.982h-120.211c-8.299 0-15.026-6.925-15.026-15.467v-111.578c0-8.542 6.728-15.467 15.026-15.467h120.212c8.299 0 15.026 6.925 15.026 15.467v111.578c0 8.542-6.728 15.467-15.027 15.467zm-105.185-30.934h90.159v-80.644h-90.159z" fill="#a26037"/><path d="m315.785 153.471h-60.105v30.934h45.079v80.644h-45.079v30.934h60.106c8.299 0 15.026-6.925 15.026-15.467v-111.579c0-8.542-6.728-15.466-15.027-15.466z" fill="#613921"/></g></g></g><g><path d="m15.019 268.598c-2.193 0-4.419-.496-6.527-1.544-7.472-3.716-10.603-12.964-6.992-20.655l60.152-128.14c1.289-2.747 3.34-5.041 5.893-6.591l180.318-109.522c4.711-2.862 10.561-2.862 15.273 0l180.318 109.521c2.525 1.533 4.558 3.793 5.851 6.501l61.154 128.14c3.659 7.667.587 16.936-6.862 20.702s-16.452.604-20.113-7.063l-59.174-123.989-168.811-102.532-168.765 102.505-58.174 123.926c-2.593 5.523-7.956 8.741-13.541 8.741z" fill="#f5dfbb"/><path d="m510.457 246.308-61.154-128.14c-1.292-2.708-3.326-4.968-5.851-6.501l-180.316-109.521c-2.302-1.398-4.876-2.108-7.456-2.14v33.53l168.63 102.422 59.173 123.989c3.66 7.667 12.663 10.829 20.113 7.063 7.448-3.766 10.52-13.034 6.861-20.702z" fill="#edbdab"/></g></g><g><g><path d="m137.69 353.828h236.62v143.172h-236.62z" fill="#c63c50"/><path d="m255.68 353.828h118.63v143.172h-118.63z" fill="#821f31"/></g><g><path d="m374.31 338.828h-236.62c-8.284 0-15 6.716-15 15v158.172h266.62v-158.172c0-8.284-6.716-15-15-15zm-147.285 86.586-74.335 44.978v-89.956zm-35.569-56.586h129.089l-64.545 39.054zm64.544 74.118 64.544 39.054h-129.088zm28.975-17.532 74.335-44.978v89.956z" fill="#f5dfbb"/><path d="m374.31 338.828h-118.63v30h64.865l-64.545 39.054-.321-.194v35.452l.321-.194 64.544 39.054h-64.864v30h133.63v-158.172c0-8.284-6.716-15-15-15zm-15 131.564-74.335-44.978 74.335-44.978z" fill="#edbdab"/></g></g><g><path d="m308.925 281.409c-32.439 0-56.4-26.662-52.727-57.139 3.872-32.124 55.135-64.619 51.793-97.216-.353-3.444 3.702-5.605 6.403-3.439 14.094 11.3 37.928 39.466 19.027 92.063 0 0 9.479-1.048 14.955-8.902 1.867-2.678 6.007-2.112 7.024.991 11.006 33.582-4.806 73.642-46.475 73.642z" fill="#e9bc3e"/><path d="m355.4 207.769c-1.017-3.103-5.156-3.67-7.024-.991-5.476 7.854-14.955 8.902-14.955 8.902 18.901-52.597-4.933-80.763-19.027-92.063-2.701-2.166-6.757-.006-6.403 3.439.357 3.484.086 6.967-.679 10.448v143.864c.538.015 1.072.041 1.614.041 41.668 0 57.48-40.06 46.474-73.64z" fill="#e58f22"/></g></g></svg>