<svg id="Capa_1" enable-background="new 0 0 512 512" height="512" viewBox="0 0 512 512" width="512" xmlns="http://www.w3.org/2000/svg"><g><g><g><path d="m333.881 163.451c-33.656 0-58.517-27.693-54.706-59.35 3.926-32.615 54.83-65.597 53.885-98.687-.129-4.522 5.128-7.109 8.547-4.151 14.728 12.74 36.407 41.767 17.689 93.915 0 0 8.772-.971 14.533-7.951 2.62-3.174 7.772-2.092 8.929 1.859 10.086 34.421-6.519 74.365-48.877 74.365z" fill="#e9bc3e"/><path d="m382.758 89.085c-1.158-3.951-6.31-5.032-8.93-1.859-5.761 6.98-14.533 7.951-14.533 7.951 18.718-52.148-2.961-81.174-17.688-93.915-3.419-2.958-8.676-.371-8.547 4.151.082 2.85-.23 5.698-.854 8.546v149.448c.558.015 1.112.043 1.675.043 42.358.001 58.963-39.943 48.877-74.365z" fill="#e58f22"/></g><g><path d="m428.784 192.674h-50.24l13.094-30.034h37.146c8.284 0 15 6.723 15 15.017 0 8.293-6.716 15.017-15 15.017z" fill="#c3bfd9"/><g><path d="m406.638 293.843h-148.864v-116.207c0-8.284 6.716-15 15-15h118.864c8.284 0 15 6.716 15 15z" fill="#f1f1fa"/><path d="m391.638 162.636h-59.432v131.207h74.432v-116.19c0-8.294-6.716-15.017-15-15.017z" fill="#ded7f9"/></g></g></g><g><g><g><path d="m402.615 512h-140.819c-34.619 0-62.684-28.064-62.684-62.684v-189.847c0-8.284 6.716-15 15-15h236.187c8.284 0 15 6.716 15 15v189.847c0 34.62-28.064 62.684-62.684 62.684z" fill="#667197"/><path d="m450.299 244.469h-118.093v267.531h70.41c34.619 0 62.684-28.096 62.684-62.755v-189.759c-.001-8.293-6.717-15.017-15.001-15.017z" fill="#4d5788"/></g><g><path d="m199.112 345.859h266.187v63.341h-266.187z" fill="#f3d652"/><path d="m332.206 345.859h133.094v63.341h-133.094z" fill="#e9bc3e"/></g></g><g><path d="m46.701 181.85v-118.84c0-34.619 28.064-62.684 62.684-62.684h71.752c8.284 0 15 6.716 15 15v214.207c0 8.284-6.716 15-15 15h-71.752c-34.62.001-62.684-28.064-62.684-62.683z" fill="#667197"/><ellipse cx="196.137" cy="247.895" fill="#f3d652" rx="31.794" ry="31.83"/></g></g></g></svg>