<svg id="Capa_1" enable-background="new 0 0 512 512" height="512" viewBox="0 0 512 512" width="512" xmlns="http://www.w3.org/2000/svg"><g><g><g><path d="m63.768 368.098-36.753-121.722v-134.296h458.298v384.92c0 8.284-6.716 15-15 15h-428.298z" fill="#f1f1fa"/><path d="m255.903 111.535v400.465h214.41c8.284 0 15-6.716 15-15v-384.92z" fill="#ded7f9"/></g><g><g><path d="m26.688 496.98.327-250.604h179.756l-.264 265.624h-164.474c-8.292 0-15.011-6.728-15.345-15.02z" fill="#824c2d"/><path d="m123.905 381.497c-8.277 0-14.987-6.718-14.987-15.005v-15.03c0-8.287 6.71-15.005 14.987-15.005s14.987 6.718 14.987 15.005v15.03c0 8.287-6.71 15.005-14.987 15.005z" fill="#4c250f"/></g><g><path d="m452.175 327.47h-174.767v-80.607c0-8.284 6.716-15 15-15h144.767c8.284 0 15 6.716 15 15z" fill="#f1f1fa"/><path d="m452.175 298.492v106.382c0 18.057-13.107 32.831-29.128 32.831-16.02 0-29.128-14.774-29.128-32.831v-13.012c0-18.057-13.108-32.831-29.128-32.831-16.02 0-29.128 14.774-29.128 32.831v.125c0 18.057-13.107 32.831-29.128 32.831-16.02 0-29.128-14.774-29.128-32.831v-93.495z" fill="#578df1"/></g></g></g><g><g><g><path d="m448.8 180.438c-19.294 0-36.598-8.617-48.2-22.17-11.602 13.553-28.906 22.17-48.2 22.17s-36.598-8.617-48.2-22.17c-11.602 13.553-28.906 22.17-48.2 22.17s-36.598-8.617-48.2-22.17c-11.602 13.553-28.906 22.17-48.2 22.17s-36.598-8.617-48.2-22.17c-11.602 13.553-28.906 22.17-48.2 22.17-34.849 0-63.2-28.104-63.2-62.649v-22.873c0-8.294 6.716-15.018 15-15.018h482c8.284 0 15 6.724 15 15.018v22.872c0 34.546-28.351 62.65-63.2 62.65z" fill="#c63c50"/><path d="m497 79.898h-241.097v100.537c.033 0 .065.003.097.003 19.294 0 36.598-8.617 48.2-22.17 11.602 13.553 28.906 22.17 48.2 22.17s36.598-8.617 48.2-22.17c11.602 13.553 28.906 22.17 48.2 22.17 34.849 0 63.2-28.104 63.2-62.649v-22.873c0-8.294-6.716-15.018-15-15.018z" fill="#942a3a"/></g><g><path d="m208.008 79.898h-96.318v78.691c11.599 13.364 28.772 21.849 47.91 21.849 19.294 0 36.598-8.617 48.2-22.17.067.078.14.152.208.23z" fill="#942a3a"/><path d="m401.008 79.898h-96.318v78.912c11.596 13.234 28.68 21.627 47.71 21.627 19.294 0 36.598-8.617 48.2-22.17.132.154.274.299.408.451z" fill="#821f31"/></g></g><g><path d="m.049 94.896c-.234-2.879.363-6.622 1.794-9.241l42.588-77.851c2.632-4.812 7.676-7.804 13.156-7.804h399.836c5.643 0 10.809 3.171 13.369 8.207l39.565 77.852c1.407 2.768 1.899 5.854 1.494 8.837z" fill="#e06c6c"/><path d="m470.792 8.207c-2.559-5.036-7.725-8.207-13.369-8.207h-201.52v94.896h255.949c.405-2.983-.087-6.068-1.494-8.837z" fill="#c63c50"/></g></g></g></svg>