<svg id="Capa_1" enable-background="new 0 0 512 512" height="512" viewBox="0 0 512 512" width="512" xmlns="http://www.w3.org/2000/svg"><g><g><g><path d="m77.166 211.598v-196.619c0-8.273 6.716-14.979 15-14.979h327.669c8.284 0 15 6.707 15 14.979v196.618l-178.835 49.71z" fill="#4d5788"/><path d="m419.834 0h-163.834v261.307l178.834-49.709v-196.619c0-8.272-6.716-14.979-15-14.979z" fill="#313a6b"/></g><g><path d="m107.166 29.959h297.668v225.691h-297.668z" fill="#f1f1fa"/><path d="m256 29.959h148.834v225.691h-148.834z" fill="#ded7f9"/></g><g><g><path d="m176 238.671c-8.284 0-15-6.707-15-14.979v-104.748c0-8.273 6.716-14.979 15-14.979s15 6.707 15 14.979v104.748c0 8.273-6.716 14.979-15 14.979z" fill="#a26037"/><path d="m206 98.194c0 16.546-13.432 49.932-30 49.932s-30-33.386-30-49.932 13.432-29.959 30-29.959 30 13.413 30 29.959z" fill="#e06c6c"/></g><g><path d="m336 238.671c-8.284 0-15-6.707-15-14.979v-104.748c0-8.273 6.716-14.979 15-14.979s15 6.707 15 14.979v104.748c0 8.273-6.716 14.979-15 14.979z" fill="#824c2d"/><path d="m366 98.194c0 16.546-13.431 49.932-30 49.932s-30-33.386-30-49.932 13.431-29.959 30-29.959 30 13.413 30 29.959z" fill="#c63c50"/></g><g><g><path d="m256 238.671c-8.284 0-15-6.707-15-14.979v-104.748c0-8.273 6.716-14.979 15-14.979s15 6.707 15 14.979v104.748c0 8.273-6.716 14.979-15 14.979z" fill="#a26037"/><path d="m256 103.965v134.707c8.284 0 15-6.707 15-14.979v-104.749c0-8.272-6.716-14.979-15-14.979z" fill="#824c2d"/></g><g><path d="m286 98.194c0 16.546-13.431 49.932-30 49.932s-30-33.386-30-49.932 13.432-29.959 30-29.959 30 13.413 30 29.959z" fill="#e06c6c"/><path d="m256 68.235v79.891c16.569 0 30-33.386 30-49.932s-13.431-29.959-30-29.959z" fill="#c63c50"/></g></g></g></g><g><g><path d="m419.834 512h-327.668c-8.284 0-15-6.716-15-15v-285.402h357.669v285.402c-.001 8.284-6.717 15-15.001 15z" fill="#667197"/><path d="m256 211.598v300.402h163.834c8.284 0 15-6.707 15-14.979v-285.423z" fill="#4d5788"/></g><g><path d="m258.296 435.403c-30.167 0-52.451-24.795-49.035-53.138 3.654-30.319 52.705-60.994 47.993-91.763-.412-2.693 2.594-4.552 4.767-2.904 12.842 9.737 37.258 36.026 19.056 86.678 0 0 9.623-1.064 14.569-9.299 1.294-2.154 4.542-1.862 5.381.505 11.171 31.512-3.384 69.921-42.731 69.921z" fill="#f3d652"/><path d="m301.026 365.483c-.839-2.368-4.087-2.66-5.381-.506-4.946 8.235-14.569 9.299-14.569 9.299 18.202-50.653-6.214-76.941-19.056-86.678-2.173-1.647-5.179.212-4.767 2.904.72 4.704.179 9.406-1.259 14.104v130.737c.763.032 1.528.059 2.302.059 39.347.001 53.902-38.408 42.73-69.919z" fill="#e9bc3e"/></g></g></g></svg>