<svg id="Capa_1" enable-background="new 0 0 512 512" height="512" viewBox="0 0 512 512" width="512" xmlns="http://www.w3.org/2000/svg"><g><g><path d="m497 454.567h-33.409c-8.284 0-15-6.716-15-15v-243.28h63.409v243.281c0 8.284-6.716 14.999-15 14.999z" fill="#c3bfd9"/><path d="m48.409 454.567h-33.409c-8.284 0-15-6.716-15-15v-243.28h63.409v243.281c0 8.284-6.716 14.999-15 14.999z" fill="#ded7f9"/></g><g><g><path d="m256 225.631h-241c-8.284 0-15-6.716-15-15v-138.198c0-8.284 6.716-15 15-15h241l10 84.099z" fill="#f1f1fa"/><path d="m256 57.433v168.198h241c8.284 0 15-6.716 15-15v-138.198c0-8.284-6.716-15-15-15z" fill="#ded7f9"/></g><g><g><path d="m217.296 225.631h89.673l168.198-168.198h-89.673z" fill="#e06c6c"/><path d="m385.494 57.433-129.494 129.494v38.704h50.969l168.198-168.198z" fill="#c63c50"/></g><g><path d="m0 136.03 78.598-78.597h-63.598c-8.284 0-15 6.716-15 15z" fill="#e06c6c"/><g><path d="m19.011 225.631h89.673l168.198-168.198h-89.673z" fill="#e06c6c"/><path d="m256 57.433v20.882l20.882-20.882z" fill="#c63c50"/></g></g><path d="m512 210.631v-81.419l-96.419 96.419h81.419c8.284 0 15-6.716 15-15z" fill="#c63c50"/></g></g></g></svg>