<svg id="Capa_1" enable-background="new 0 0 512 512" height="512" viewBox="0 0 512 512" width="512" xmlns="http://www.w3.org/2000/svg"><g><g><g><path d="m320.309 227.961h-67.425v-130.619c0-18.619 15.094-33.713 33.713-33.713 18.619 0 33.712 15.094 33.712 33.713z" fill="#c63c50"/><path d="m286.597 63.629v164.332h33.713v-130.619c0-18.619-15.094-33.713-33.713-33.713z" fill="#821f31"/></g><g><g><path d="m378.724 512h-184.254c-8.284 0-15-6.716-15-15v-98.118l10-35.847-10-35.847v-45.026c0-59.164 47.962-107.127 107.127-107.127 59.164 0 107.127 47.962 107.127 107.127v45.026l-10 35.847 10 35.847v98.118c0 8.284-6.716 15-15 15z" fill="#e06c6c"/><path d="m286.597 175.035v336.965h92.127c8.284 0 15-6.716 15-15v-98.118l-10-35.847 10-35.847v-45.026c0-59.165-47.963-107.127-107.127-107.127z" fill="#c63c50"/></g><g><path d="m179.47 327.188h214.253v71.694h-214.253z" fill="#f1f1fa"/><path d="m286.597 327.188h107.127v71.694h-107.127z" fill="#ded7f9"/></g></g></g><g><g><path d="m70.289 219.918c-8.284 0-15-6.716-15-15v-71.843c0-48.128 39.155-87.283 87.283-87.283h108.696c8.284 0 15 6.716 15 15s-6.716 15-15 15h-108.696c-31.586 0-57.283 25.697-57.283 57.283v71.843c0 8.284-6.716 15-15 15z" fill="#ded7f9"/><path d="m70.522 293.968c-21.393 0-38.735-17.342-38.735-38.735v-57.882c0-21.393 17.342-38.735 38.735-38.735 21.393 0 38.735 17.342 38.735 38.735v57.882c0 21.392-17.342 38.735-38.735 38.735z" fill="#bfdafe"/></g><path d="m430.925 134.544c-1.371 0-2.764-.19-4.147-.587l-109.298-31.382c-7.962-2.286-12.564-10.595-10.278-18.557 2.287-7.962 10.593-12.563 18.557-10.278l109.298 31.382c7.962 2.286 12.564 10.595 10.278 18.557-1.889 6.58-7.89 10.865-14.41 10.865z" fill="#c3bfd9"/><g><path d="m238.968 42.576v50.599c0 13.499 10.944 24.443 24.443 24.443h45.801c13.499 0 24.443-10.944 24.443-24.443v-37.787h98.852c23.774 0 43.542-19.645 47.601-45.533.81-5.169-3.146-9.855-8.378-9.855h-190.186c-23.514 0-42.576 19.062-42.576 42.576z" fill="#667197"/><path d="m471.73 0h-185.133v117.618h22.614c13.499 0 24.443-10.944 24.443-24.443v-37.787h98.852c23.774 0 43.542-19.645 47.601-45.533.812-5.169-3.145-9.855-8.377-9.855z" fill="#4d5788"/></g></g></g></svg>