<svg id="Capa_1" enable-background="new 0 0 512.015 512.015" height="512" viewBox="0 0 512.015 512.015" width="512" xmlns="http://www.w3.org/2000/svg"><g><g><g><g><path d="m98.583 404.894h63.807v107.122h-63.807z" fill="#a26037"/><path d="m130.487 404.894h31.904v107.122h-31.904z" fill="#824c2d"/></g><g><path d="m204.707 295.18h24.073c3.665 0 6.118-3.77 4.633-7.12l-59.696-134.751h20.196c3.665 0 6.118-3.77 4.633-7.12l-63.426-143.174c-1.781-4.02-7.486-4.02-9.267 0l-63.426 143.173c-1.484 3.35.969 7.12 4.633 7.12h20.196l-59.695 134.751c-1.484 3.351.969 7.12 4.633 7.12h24.073l-55.819 126.001c-1.484 3.351.969 7.12 4.633 7.12h250.812c3.665 0 6.118-3.77 4.633-7.12z" fill="#5a9ea7"/><path d="m260.526 421.18-55.819-126h24.073c3.665 0 6.118-3.77 4.633-7.12l-59.695-134.751h20.196c3.665 0 6.118-3.77 4.633-7.12l-63.427-143.174c-.89-2.01-2.762-3.015-4.633-3.015v428.301h125.406c3.664 0 6.117-3.77 4.633-7.121z" fill="#4f7976"/></g></g><g><g><path d="m349.625 404.894h63.807v107.106h-63.807z" fill="#613921"/><path d="m381.528 404.894h31.904v107.122h-31.904z" fill="#4c250f"/></g><g><path d="m455.749 295.18h24.073c3.665 0 6.118-3.77 4.633-7.12l-59.695-134.751h20.196c3.665 0 6.118-3.77 4.633-7.12l-63.427-143.174c-1.781-4.02-7.486-4.02-9.267 0l-63.427 143.173c-1.484 3.35.969 7.12 4.633 7.12h20.196l-59.696 134.751c-1.484 3.351.969 7.12 4.633 7.12h24.073l-55.818 126.001c-1.484 3.351.969 7.12 4.633 7.12h250.812c3.665 0 6.118-3.77 4.633-7.12z" fill="#5a9ea7"/><path d="m511.568 421.18-55.819-126h24.073c3.664 0 6.118-3.77 4.633-7.12l-59.696-134.751h20.196c3.665 0 6.118-3.77 4.633-7.12l-63.426-143.174c-.891-2.01-2.762-3.015-4.634-3.015v428.301h125.406c3.665 0 6.118-3.77 4.634-7.121z" fill="#4f7976"/></g></g><g><g><path d="m224.53 406.563h62.956v105.437h-62.956z" fill="#824c2d"/><path d="m256.008 406.563h31.478v105.437h-31.478z" fill="#613921"/></g><g><path d="m307.809 341.408h14.553c3.616 0 6.036-3.719 4.572-7.025l-40.754-91.994h11.848c3.616 0 6.036-3.719 4.572-7.025l-42.02-94.853c-1.757-3.966-7.386-3.966-9.143 0l-42.02 94.853c-1.465 3.306.956 7.025 4.572 7.025h11.848l-40.754 91.994c-1.464 3.306.956 7.025 4.572 7.025h14.553l-38.048 85.887c-1.465 3.306.956 7.025 4.571 7.025h170.557c3.616 0 6.036-3.719 4.572-7.025z" fill="#5a9ea7"/><path d="m345.858 427.295-38.048-85.887h14.553c3.616 0 6.036-3.72 4.572-7.025l-40.754-91.994h11.848c3.616 0 6.036-3.719 4.572-7.025l-42.02-94.852c-.879-1.983-2.725-2.975-4.571-2.975v296.783h85.279c3.613 0 6.033-3.72 4.569-7.025z" fill="#4f7976"/></g></g></g><g><g><path d="m62.6 186.615c-38.238 0-66.483-31.428-62.154-67.354 4.534-37.616 64.195-75.663 61.122-113.832-.353-4.389 4.718-7.082 8.125-4.293 16.682 13.656 43.776 46.796 21.782 107.998 0 0 10.87-1.202 17.361-10.118 2.373-3.259 7.54-2.385 8.762 1.457 12.55 39.447-6.154 86.142-54.998 86.142z" fill="#edbe2c"/><path d="m117.598 100.474c-1.222-3.842-6.389-4.717-8.762-1.457-6.491 8.916-17.361 10.118-17.361 10.118 21.993-61.203-5.101-94.343-21.782-107.998-3.407-2.789-8.478-.096-8.125 4.293.31 3.846-.027 7.691-.871 11.534v169.603c.634.017 1.263.049 1.903.049 48.844-.001 67.548-46.696 54.998-86.142z" fill="#e58f22"/></g><g><path d="m323.788 512.015c-32.239 0-56.054-26.497-52.403-56.787 3.758-31.186 52.459-62.724 51.619-94.365-.116-4.351 4.942-6.841 8.233-3.992 14.107 12.211 34.807 39.979 16.896 89.819 0 0 8.371-.926 13.89-7.569 2.531-3.047 7.487-2.014 8.599 1.787 9.631 32.925-6.279 71.107-46.834 71.107z" fill="#edbe2c"/><path d="m370.622 440.909c-1.112-3.802-6.069-4.834-8.599-1.787-5.519 6.644-13.889 7.569-13.889 7.569 17.91-49.84-2.79-77.608-16.897-89.819-3.291-2.849-8.348-.358-8.233 3.992.072 2.706-.226 5.412-.82 8.116v142.994c.534.015 1.065.041 1.604.041 40.555 0 56.465-38.182 46.834-71.106z" fill="#e58f22"/></g><g><path d="m441.102 312.323c-46.121 0-80.189-37.907-74.966-81.238 5.553-46.075 79.677-92.686 73.494-139.442-.59-4.459 4.475-7.385 8.028-4.628 19.837 15.394 55.698 55.535 28.272 131.855 0 0 14.242-1.575 21.903-13.618 2.223-3.495 7.558-2.861 8.905 1.056 16.5 48.007-5.847 106.015-65.636 106.015z" fill="#edbe2c"/><path d="m506.738 206.309c-1.346-3.917-6.682-4.551-8.905-1.056-7.661 12.043-21.903 13.618-21.903 13.618 27.426-76.321-8.435-116.461-28.272-131.855-3.553-2.757-8.618.169-8.028 4.628.708 5.355.353 10.709-.823 16.06v204.587c.762.021 1.526.033 2.295.033 59.789-.001 82.136-58.01 65.636-106.015z" fill="#e58f22"/></g></g></g></svg>