<svg id="Capa_1" enable-background="new 0 0 511.993 511.993" height="512" viewBox="0 0 511.993 511.993" width="512" xmlns="http://www.w3.org/2000/svg"><g><g><g><ellipse cx="214.51" cy="139.824" fill="#f1f1fa" rx="139.824" ry="139.824" transform="matrix(.707 -.707 .707 .707 -36.042 192.635)"/><path d="m214.515 0v279.649c77.22-.003 139.819-62.603 139.819-139.824s-62.598-139.822-139.819-139.825z" fill="#ded7f9"/></g><g><path d="m214.509 212.096c-39.85 0-72.271-32.421-72.271-72.271 0-39.851 32.421-72.271 72.271-72.271 39.851 0 72.272 32.421 72.272 72.271s-32.421 72.271-72.272 72.271z" fill="#e06c6c"/><path d="m214.515 67.553v144.542c39.848-.003 72.266-32.423 72.266-72.271s-32.417-72.267-72.266-72.271z" fill="#c63c50"/></g></g><g><path d="m407.331 304.037c-16.581 0-30.023 13.442-30.023 30.023 0-.367 0-1.642 0-1.642-.853-15.817-13.947-28.381-29.977-28.381-16.581 0-30.023 13.442-30.023 30.023 0-.367 0-1.642 0-1.642-.853-15.817-13.947-28.381-29.977-28.381-16.581 0-30.023 13.442-30.023 30.023v-131.642c-.853-15.817-13.947-28.381-29.977-28.381-16.581 0-30.023 13.442-30.023 30.023l-.371 307.933h240.371v-177.941c-.853-17.452-13.947-30.015-29.977-30.015z" fill="#f5dfbb"/><path d="m407.331 304.037c-16.581 0-30.023 13.442-30.023 30.023 0-.367 0-1.642 0-1.642-.853-15.817-13.947-28.381-29.977-28.381-16.581 0-30.023 13.442-30.023 30.023v177.933h120v-177.941c-.853-17.452-13.947-30.015-29.977-30.015z" fill="#edbdab"/></g></g></svg>