<svg id="Capa_1" enable-background="new 0 0 512 512" height="512" viewBox="0 0 512 512" width="512" xmlns="http://www.w3.org/2000/svg"><g><g><path d="m399.706 460.351h-82.331c-8.284 0-15-6.716-15-15s6.716-15 15-15h82.331c26.537 0 48.127-21.59 48.127-48.127v-134.26c0-8.284 6.716-15 15-15s15 6.716 15 15v134.259c0 43.08-35.048 78.128-78.127 78.128z" fill="#c63c50"/><path d="m462.833 254.442c-27.11 0-49.167-22.056-49.167-49.167s22.057-49.167 49.167-49.167 49.167 22.056 49.167 49.167-22.057 49.167-49.167 49.167z" fill="#667197"/></g><g><g><path d="m239.337 512h-97.782c-55.001 0-99.747-44.746-99.747-99.747v-110c0-8.284 6.716-15 15-15h267.275c8.284 0 15 6.716 15 15v110c0 55.001-44.746 99.747-99.746 99.747z" fill="#667197"/><path d="m324.083 287.253h-133.083v224.747h48.337c55 0 99.746-44.746 99.746-99.747v-110c0-8.284-6.716-15-15-15z" fill="#4d5788"/></g><g><g><path d="m190.444 380.891c-105.011 0-190.444-85.434-190.444-190.446 0-105.011 85.433-190.445 190.444-190.445 105.013 0 190.446 85.434 190.446 190.445.001 105.012-85.433 190.446-190.446 190.446z" fill="#f3d652"/><path d="m191 .007v380.877c104.758-.302 189.891-85.612 189.891-190.439 0-104.826-85.133-190.136-189.891-190.438z" fill="#e9bc3e"/></g><g><path d="m190.445 258.78c-37.68 0-68.335-30.655-68.335-68.335s30.655-68.334 68.335-68.334 68.335 30.655 68.335 68.334c0 37.681-30.655 68.335-68.335 68.335z" fill="#e9bc3e"/><path d="m191 122.125v136.641c37.424-.301 67.78-30.827 67.78-68.321 0-37.493-30.356-68.019-67.78-68.32z" fill="#e58f22"/></g></g></g></g></svg>