<svg id="Capa_1" enable-background="new 0 0 512 512" height="512" viewBox="0 0 512 512" width="512" xmlns="http://www.w3.org/2000/svg"><g><g><path d="m428.573 216.003h-59.611v-127.553c0-8.284 6.716-15 15-15h29.611c8.284 0 15 6.716 15 15z" fill="#4d5788"/><g><g><path d="m428.611 497.472h-345.222v-293.512l172.611-190.241 172.611 190.241z" fill="#f1f1fa"/><path d="m256 13.719v483.752h172.611v-293.511z" fill="#ded7f9"/></g><g><path d="m256 0c-4.082-.003-8.165 1.612-11.103 4.85l-202.871 223.594c-5.57 6.14-5.116 15.638 1.016 21.216 2.874 2.614 6.483 3.902 10.082 3.902 4.081 0 8.147-1.657 11.107-4.92l191.769-211.357 10-18.49z" fill="#667197"/><path d="m469.974 228.444s-202.9-223.615-202.912-223.628c-2.935-3.206-6.998-4.812-11.062-4.815v37.284l191.769 211.356c2.96 3.262 7.026 4.92 11.107 4.92 3.598 0 7.209-1.289 10.082-3.902 6.132-5.577 6.587-15.076 1.016-21.215z" fill="#4d5788"/></g></g></g><g><path d="m512 405.422c-25.603 0-25.603 17.062-51.206 17.062s-25.603-17.062-51.205-17.062c-25.599 0-25.599 17.062-51.199 17.062s-25.6-17.062-51.2-17.062c-25.599 0-25.599 17.062-51.198 17.062-25.598 0-25.598-17.062-51.197-17.062-25.6 0-25.6 17.062-51.2 17.062-25.599 0-25.599-17.062-51.198-17.062-25.6 0-25.6 17.062-51.199 17.062s-25.599-17.062-51.198-17.062v106.578h512z" fill="#bfdafe"/><path d="m460.794 422.483c-25.603 0-25.603-17.062-51.205-17.062-25.599 0-25.599 17.062-51.199 17.062s-25.6-17.062-51.2-17.062c-25.596 0-25.599 17.058-51.19 17.061v89.516h256v-106.576c-25.603 0-25.603 17.061-51.206 17.061z" fill="#4a75e5"/></g><g><path d="m328.206 277.475c0 39.929-32.328 72.298-72.206 72.298s-72.206-32.369-72.206-72.298c0-32.597 48.124-90.812 65.796-111.092 3.392-3.892 9.427-3.892 12.819 0 17.673 20.28 65.797 78.495 65.797 111.092z" fill="#bfdafe"/><path d="m262.41 166.383c-1.696-1.946-4.053-2.919-6.409-2.919v186.309c39.878 0 72.206-32.369 72.206-72.298-.001-32.597-48.125-90.812-65.797-111.092z" fill="#4a75e5"/></g></g></svg>