<svg id="Capa_1" enable-background="new 0 0 512.036 512.036" height="512" viewBox="0 0 512.036 512.036" width="512" xmlns="http://www.w3.org/2000/svg"><g><g><g><g><path d="m256.018 69.963c-8.284 0-15-6.716-15-15v-39.927c0-8.284 6.716-15 15-15s15 6.716 15 15v39.927c0 8.284-6.716 15-15 15z" fill="#ded7f9"/><path d="m256.018.036v69.927c8.284 0 15-6.716 15-15v-39.927c0-8.284-6.716-15-15-15z" fill="#c3bfd9"/></g><g><path d="m217.652 125.807c-2.761 0-5-2.239-5-5v-55.755c0-8.284 6.716-15 15-15h56.732c8.284 0 15 6.716 15 15v55.755c0 2.761-2.239 5-5 5z" fill="#f1f1fa"/><path d="m284.384 50.052h-28.366v75.755h38.366c2.762 0 5-2.239 5-5v-55.755c0-8.284-6.716-15-15-15z" fill="#ded7f9"/></g><g><g><path d="m351.266 512.036h-190.496v-381.229c0-8.284 6.716-15 15-15h160.496c8.284 0 15 6.716 15 15z" fill="#667197"/><path d="m336.266 115.807h-80.248v396.229h95.248v-381.229c0-8.285-6.716-15-15-15z" fill="#4d5788"/></g><g><path d="m286.018 448.359c-8.284 0-15-6.716-15-15v-244.937c0-8.284 6.716-15 15-15s15 6.716 15 15v244.938c0 8.283-6.716 14.999-15 14.999z" fill="#edbe2c"/><path d="m226.018 448.359c-8.284 0-15-6.716-15-15v-244.937c0-8.284 6.716-15 15-15s15 6.716 15 15v244.938c0 8.283-6.716 14.999-15 14.999z" fill="#f3d652"/></g></g></g><g><g><path d="m100.77 288.554h-100.752v-273.518c0-8.284 6.716-15 15-15h70.752c8.284 0 15 6.716 15 15z" fill="#667197"/><path d="m85.77.036h-35.376v288.518h50.376v-273.518c0-8.284-6.716-15-15-15z" fill="#4d5788"/></g><g><g><g><path d="m160.779 512.036h-160.761v-64.685l10-15-10-15v-30l10-15-10-15v-30l10-15-10-15v-35.744c0-8.284 6.716-15 15-15h130.761c8.284 0 15 6.716 15 15v35.744l-10 15 10 15v30l-10 16.504 10 13.496v30l-10 15 10 15z" fill="#f1f1fa"/><path d="m160.779 261.606c0-8.284-6.716-15-15-15h-65.38v265.43h80.38v-64.685l-10-15 10-15v-30l-10-13.496 10-16.504v-30l-10-15 10-15z" fill="#ded7f9"/></g><g><path d="m80.398 451.103c-8.284 0-15-6.716-15-15v-124.497c0-8.284 6.716-15 15-15s15 6.716 15 15v124.496c0 8.285-6.716 15.001-15 15.001z" fill="#ded7f9"/><path d="m80.398 296.606v154.496c8.284 0 14.999-6.716 14.999-15v-124.496c.001-8.283-6.715-14.999-14.999-15z" fill="#c3bfd9"/></g></g><g><g fill="#edbe2c"><path d="m160.779 417.351h-25.761c-8.284 0-15 6.716-15 15s6.716 15 15 15h25.761z"/><path d="m160.779 357.351h-25.761c-8.284 0-15 6.716-15 15s6.716 15 15 15h25.761z"/><path d="m160.779 297.351h-25.761c-8.284 0-15 6.716-15 15s6.716 15 15 15h25.761z"/></g><g fill="#f3d652"><path d="m23.253 417.351h-23.235v30h23.235c8.284 0 15-6.716 15-15 0-8.285-6.715-15-15-15z"/><path d="m23.253 357.351h-23.235v30h23.235c8.284 0 15-6.716 15-15 0-8.285-6.715-15-15-15z"/><path d="m23.253 297.351h-23.235v30h23.235c8.284 0 15-6.716 15-15 0-8.285-6.715-15-15-15z"/></g></g></g></g><g><g><path d="m512.018 512.036h-160.752v-497.036c0-8.284 6.716-15 15-15h130.752c8.284 0 15 6.716 15 15z" fill="#f1f1fa"/><path d="m497.018 0h-65.376v512.036h80.376v-497.036c0-8.284-6.716-15-15-15z" fill="#ded7f9"/></g><g><g><path d="m444.555 391h-25.826c-8.284 0-15-6.716-15-15s6.716-15 15-15h25.826c8.284 0 15 6.716 15 15s-6.716 15-15 15z" fill="#f3d652"/><path d="m444.555 361h-12.913v30h12.913c8.284 0 15-6.716 15-15s-6.716-15-15-15z" fill="#edbe2c"/></g><g><path d="m444.555 331h-25.826c-8.284 0-15-6.716-15-15s6.716-15 15-15h25.826c8.284 0 15 6.716 15 15s-6.716 15-15 15z" fill="#f3d652"/><path d="m444.555 301h-12.913v30h12.913c8.284 0 15-6.716 15-15s-6.716-15-15-15z" fill="#edbe2c"/></g><g><path d="m444.555 271h-25.826c-8.284 0-15-6.716-15-15s6.716-15 15-15h25.826c8.284 0 15 6.716 15 15s-6.716 15-15 15z" fill="#f3d652"/><path d="m444.555 241h-12.913v30h12.913c8.284 0 15-6.716 15-15s-6.716-15-15-15z" fill="#edbe2c"/></g><g><path d="m444.555 211h-25.826c-8.284 0-15-6.716-15-15s6.716-15 15-15h25.826c8.284 0 15 6.716 15 15s-6.716 15-15 15z" fill="#f3d652"/><path d="m444.555 181h-12.913v30h12.913c8.284 0 15-6.716 15-15s-6.716-15-15-15z" fill="#edbe2c"/></g><g><path d="m444.555 151h-25.826c-8.284 0-15-6.716-15-15s6.716-15 15-15h25.826c8.284 0 15 6.716 15 15s-6.716 15-15 15z" fill="#f3d652"/><path d="m444.555 121h-12.913v30h12.913c8.284 0 15-6.716 15-15s-6.716-15-15-15z" fill="#edbe2c"/></g><g><path d="m444.555 91h-25.826c-8.284 0-15-6.716-15-15s6.716-15 15-15h25.826c8.284 0 15 6.716 15 15s-6.716 15-15 15z" fill="#f3d652"/><path d="m444.555 61h-12.913v30h12.913c8.284 0 15-6.716 15-15s-6.716-15-15-15z" fill="#edbe2c"/></g></g></g></g><g><g><path d="m352.999 194.877c-34.825 0-60.549-28.622-56.605-61.341 4.193-34.79 60.163-69.985 55.494-105.289-.445-3.367 3.379-5.577 6.062-3.494 14.978 11.624 42.057 41.933 21.348 99.561 0 0 10.754-1.189 16.539-10.283 1.679-2.639 5.707-2.16 6.724.798 12.457 36.247-4.417 80.048-49.562 80.048z" fill="#edbe2c"/><path d="m402.559 114.828c-1.017-2.958-5.045-3.437-6.724-.798-5.784 9.093-16.539 10.282-16.539 10.282 20.709-57.628-6.369-87.937-21.348-99.561-2.683-2.082-6.507.128-6.062 3.495.535 4.044.266 8.086-.621 12.126v154.479c.575.016 1.153.025 1.733.025 45.146.001 62.02-43.8 49.561-80.048z" fill="#e58f22"/></g><g><path d="m128.897 310.233c-44.38 0-77.162-36.476-72.136-78.171 5.343-44.335 76.67-89.187 70.719-134.178-.567-4.291 4.306-7.107 7.725-4.453 19.088 14.813 53.595 53.438 27.205 126.878 0 0 13.705-1.515 21.076-13.104 2.139-3.363 7.273-2.753 8.569 1.016 15.876 46.194-5.626 102.012-63.158 102.012z" fill="#edbe2c"/><path d="m192.055 208.221c-1.296-3.77-6.429-4.38-8.569-1.016-7.371 11.588-21.076 13.104-21.076 13.104 26.391-73.44-8.117-112.064-27.205-126.878-3.419-2.653-8.292.163-7.725 4.453.682 5.153.34 10.305-.791 15.453v196.863c.733.02 1.469.032 2.208.032 57.532.001 79.035-55.817 63.158-102.011z" fill="#e58f22"/></g></g></g></svg>