<svg id="Capa_1" enable-background="new 0 0 512 512" height="512" viewBox="0 0 512 512" width="512" xmlns="http://www.w3.org/2000/svg"><g><g><g><ellipse cx="222.953" cy="223.071" fill="#f3d652" rx="222.953" ry="223.071"/><path d="m222.953 0v446.141c122.936 0 222.953-100.069 222.953-223.07s-100.016-223.071-222.953-223.071z" fill="#e9bc3e"/></g><g><ellipse cx="222.953" cy="223.07" fill="#e9bc3e" rx="159.252" ry="159.336"/><path d="m222.953 63.735v318.672c87.812 0 159.252-71.478 159.252-159.336.001-87.859-71.44-159.336-159.252-159.336z" fill="#e58f22"/></g></g><g><g><g><path d="m191.103 427.201v-113.997c10.503 3.726 21.84 5.671 33.653 5.451 50.865-.945 92.444-42.259 93.719-93.143 1.352-53.998-42.3-98.326-96.034-98.042-52.762.279-95.038 43.978-95.038 96.769v217.544c0 38.78 31.421 70.217 70.18 70.217h226.787v-63.734h-212.214c-11.627 0-21.053-9.431-21.053-21.065z" fill="#f3d652"/><g><path d="m222.953 318.648c.601 0 1.198.019 1.802.008 50.865-.946 92.444-42.259 93.719-93.143 1.348-53.825-42.023-98.037-95.521-98.038z" fill="#e9bc3e"/><path d="m222.953 448.266v63.734h171.402l15.007-10.01 15.008 10.01v-63.734l-15.008 10.01-15.007-10.01z" fill="#edbe2c"/></g></g><g><path d="m416.805 512h80.195c8.284 0 15-6.716 15-15v-33.996c0-8.284-6.716-15-15-15h-80.195z" fill="#ded7f9"/><path d="m394.355 448.266h30.015v63.734h-30.015z" fill="#e69022"/></g></g><g><ellipse cx="222.953" cy="223.071" fill="#e9bc3e" rx="31.851" ry="31.867"/><path d="m222.953 191.203v63.735c17.59 0 31.85-14.267 31.85-31.867.001-17.6-14.259-31.868-31.85-31.868z" fill="#e58f22"/></g></g></g></svg>