<svg id="Capa_1" enable-background="new 0 0 512.521 512.521" height="512" viewBox="0 0 512.521 512.521" width="512" xmlns="http://www.w3.org/2000/svg"><g><g><g><g><path d="m478.388 242.52v-110.034l-222.26-117.439-222.259 117.439v110.034l222.259 30z" fill="#667197"/><path d="m256.128 15.047v257.473l222.26-30v-110.034z" fill="#4d5788"/></g><g><g><path d="m33.869 242.52h444.518v270h-444.518z" fill="#f1f1fa"/><path d="m256.128 242.52h222.259v270h-222.259z" fill="#ded7f9"/></g><g><g><path d="m33.869 482.52h444.518v30h-444.518z" fill="#ded7f9"/><path d="m256.128 482.52h222.259v30h-222.259z" fill="#c3bfd9"/></g><g><path d="m33.869 422.52h444.518v30h-444.518z" fill="#ded7f9"/><path d="m256.128 422.52h222.259v30h-222.259z" fill="#c3bfd9"/></g><g><path d="m33.869 362.52h444.518v30h-444.518z" fill="#ded7f9"/><path d="m256.128 362.52h222.259v30h-222.259z" fill="#c3bfd9"/></g><g><path d="m33.869 302.52h444.518v30h-444.518z" fill="#ded7f9"/><path d="m256.128 302.52h222.259v30h-222.259z" fill="#c3bfd9"/></g><g><path d="m33.869 242.52h444.518v30h-444.518z" fill="#ded7f9"/><path d="m256.128 242.52h222.259v30h-222.259z" fill="#c3bfd9"/></g></g></g></g><g><path d="m15.329 157.055c-5.536 0-10.738-3.144-13.304-8.05-2.337-4.466-2.248-9.924.222-14.317 1.415-2.518 3.559-4.589 6.117-5.927l240.878-127.052c4.387-2.295 9.624-2.278 13.994.046l240.991 127.052c7.314 3.889 10.093 12.972 6.204 20.286s-12.972 10.092-20.286 6.204l-234.007-123.339-233.869 123.385c-2.219 1.161-4.597 1.712-6.94 1.712z" fill="#e06c6c"/><path d="m504.227 128.807-240.991-127.052c-2.22-1.181-4.664-1.76-7.107-1.748v31.957l.01-.005 234.007 123.339c7.314 3.888 16.397 1.11 20.286-6.204 3.888-7.315 1.11-16.398-6.205-20.287z" fill="#c63c50"/></g></g><g><path d="m257.656 216.132c-30.7 0-53.377-25.232-49.901-54.075 3.485-28.917 47.548-58.152 49.121-87.485.277-5.165 6.468-7.615 10.215-4.049 13.212 12.574 29.834 38.64 13.748 83.404 0 0 6.716-.742 11.883-5.757 3.43-3.329 9.08-1.802 10.231 2.837 7.625 30.73-7.735 65.125-45.297 65.125z" fill="#f3d652"/><path d="m302.953 151.007c-1.151-4.639-6.801-6.166-10.231-2.837-5.167 5.015-11.883 5.757-11.883 5.757 16.086-44.765-.536-70.83-13.748-83.404-3.747-3.566-9.938-1.115-10.215 4.049-.096 1.788-.355 3.576-.748 5.364v136.157c.509.014 1.014.039 1.528.039 37.562 0 52.922-34.395 45.297-65.125z" fill="#edbe2c"/></g></g></svg>