<svg id="Capa_1" enable-background="new 0 0 512 512" height="512" viewBox="0 0 512 512" width="512" xmlns="http://www.w3.org/2000/svg"><g clip-rule="evenodd" fill-rule="evenodd"><path d="m488.472 502.022c0 6.293-3.628 9.978-10.006 9.978h-175.864-269.067c-6.52 0-9.979-3.005-9.979-9.978v-188.96h271.789l7.257-28.433v-158.968h185.869v376.361z" fill="#e6646e"/><path d="m488.472 502.022c0 6.293-3.628 9.978-10.006 9.978h-19.984v-381.32h29.99z" fill="#dc4655"/><path d="m395.523 0c23.697 0 43.059 19.361 43.059 43.06v59.188h-86.09v-59.188c0-23.699 19.361-43.06 43.031-43.06z" fill="#ffe17d"/><path d="m395.523 0c23.697 0 43.059 19.361 43.059 43.06v59.188h-29.991v-59.188c0-18.427-11.707-34.215-28.064-40.338 4.678-1.757 9.724-2.722 14.996-2.722z" fill="#ffc369"/><path d="m302.602 130.68h185.869c9.185 0 16.696-7.541 16.696-16.726 0-9.184-7.512-16.725-16.696-16.725h-185.869c-9.184 0-16.725 7.541-16.725 16.725.001 9.185 7.541 16.726 16.725 16.726z" fill="#365e7d"/><path d="m458.481 130.68h29.99c9.185 0 16.696-7.541 16.696-16.726 0-9.184-7.512-16.725-16.696-16.725h-29.99c9.185 0 16.696 7.541 16.696 16.725.001 9.185-7.511 16.726-16.696 16.726z" fill="#294b64"/><path d="m223.09 241.061c10.602 0 19.275 8.674 19.275 19.305v29.253h-38.551v-29.253c0-10.631 8.674-19.305 19.276-19.305zm-120.021 0c10.602 0 19.276 8.674 19.276 19.305v29.253h-38.58v-29.253c.001-10.631 8.674-19.305 19.304-19.305z" fill="#ffe17d"/><path d="m23.557 318.052h279.046v-33.422h-279.046c-9.213 0-16.725 7.512-16.725 16.697 0 9.213 7.512 16.725 16.725 16.725z" fill="#365e7d"/><path d="m455.052 512v-120.077c0-3.316-2.722-6.009-6.01-6.009h-107.01c-3.316 0-6.009 2.692-6.009 6.009v120.077z" fill="#365e7d"/><path d="m455.052 512v-120.077c0-3.316-2.722-6.009-6.01-6.009h-53.519v126.086z" fill="#294b64"/><path d="m420.61 177.764h28.432c3.288 0 6.01 2.692 6.01 6.009v49.267c0 3.316-2.722 6.009-6.01 6.009h-28.432c-3.316 0-6.01-2.692-6.01-6.009v-49.267c.001-3.317 2.694-6.009 6.01-6.009zm-78.578 0h28.433c3.316 0 6.01 2.692 6.01 6.009v49.267c0 3.316-2.693 6.009-6.01 6.009h-28.433c-3.316 0-6.009-2.692-6.009-6.009v-49.267c0-3.317 2.693-6.009 6.009-6.009zm0 106.866h28.433c3.316 0 6.01 2.693 6.01 5.981v49.295c0 3.289-2.693 6.01-6.01 6.01h-28.433c-3.316 0-6.009-2.721-6.009-6.01v-49.295c0-3.288 2.693-5.981 6.009-5.981zm78.578 0h28.432c3.288 0 6.01 2.693 6.01 5.981v49.295c0 3.289-2.722 6.01-6.01 6.01h-28.432c-3.316 0-6.01-2.721-6.01-6.01v-49.295c.001-3.288 2.694-5.981 6.01-5.981z" fill="#c4deff"/><path d="m147.12 512v-120.077c0-3.316-2.693-6.009-6.01-6.009h-76.111c-3.288 0-6.009 2.692-6.009 6.009v120.077zm120.021 0v-120.077c0-3.316-2.693-6.009-6.01-6.009h-76.111c-3.288 0-5.98 2.692-5.98 6.009v120.077z" fill="#3f6d8e"/><path d="m147.12 512v-120.077c0-3.316-2.693-6.009-6.01-6.009h-29.99c3.288 0 5.981 2.692 5.981 6.009v120.077zm120.021 0v-120.077c0-3.316-2.693-6.009-6.01-6.009h-29.991c3.316 0 6.01 2.692 6.01 6.009v120.077z" fill="#365e7d"/><path d="m147.12 486.347v-14.995h-88.13v14.995zm0-29.879v-14.994h-88.13v14.994zm0-29.877v-14.995h-88.13v14.995z" fill="#294b64"/><path d="m267.141 486.347v-14.995h-88.102v14.995zm0-29.879v-14.994h-88.102v14.994zm0-29.877v-14.995h-88.102v14.995z" fill="#294b64"/><path d="m272.583 318.052h30.019v193.948h-30.019z" fill="#dc4655"/><path d="m272.583 284.63h30.019v33.422h-30.019z" fill="#294b64"/></g></svg>