<?xml version="1.0" encoding="utf-8"?>
<!-- Generator: Adobe Illustrator 25.2.1, SVG Export Plug-In . SVG Version: 6.00 Build 0)  -->
<svg version="1.1" id="Layer_1" xmlns="http://www.w3.org/2000/svg" xmlns:xlink="http://www.w3.org/1999/xlink" x="0px" y="0px"
	 viewBox="0 0 50 50" style="enable-background:new 0 0 50 50;" xml:space="preserve">
<style type="text/css">
	.st0{fill:#1653A5;}
	.st1{fill:#6C9CD3;}
	.st2{fill:url(#SVGID_1_);}
</style>
<g>
	<path class="st0" d="M43.95,20.91h-9.23c-1.09,0-2.1,0.6-2.62,1.56l-4.95,9.12h16.79c1.96,0,3.76-1.07,4.69-2.79l0,0
		C50.58,25.24,48,20.91,43.95,20.91z"/>
	<path class="st1" d="M22.79,7.95H5.99c-1.96,0-3.76,1.07-4.69,2.79l0,0c-1.93,3.56,0.65,7.89,4.69,7.89h11L22.79,7.95z"/>
	<linearGradient id="SVGID_1_" gradientUnits="userSpaceOnUse" x1="18.1145" y1="15.4774" x2="33.7684" y2="31.1312">
		<stop  offset="0" style="stop-color:#6C9CD3"/>
		<stop  offset="0.2082" style="stop-color:#5884C4"/>
		<stop  offset="0.5322" style="stop-color:#3868B2"/>
		<stop  offset="0.7816" style="stop-color:#2159A8"/>
		<stop  offset="0.9244" style="stop-color:#1653A5"/>
	</linearGradient>
	<path class="st2" d="M48.71,10.86l-0.08-0.15c-0.92-1.7-2.7-2.75-4.63-2.75H25.67L25.69,8l-0.1,0L9.19,36.65
		c-2.01,3.51,0.53,7.89,4.58,7.88h0c1.88,0,3.62-1.01,4.55-2.65l11.79-20.6c0.94-1.64,2.68-2.65,4.57-2.65h9.39
		C48.07,18.63,50.61,14.37,48.71,10.86z"/>
</g>
</svg>
